{
copyright = tangentsnowball;
date = "2012-01-05 09:51:22 +0000";
designer = "Tangent Snowball (@flamingwhopper, @nathanstaines, @jackarmley, @pete_miller)";
designerURL = www.tangentsnowball.com;
familyName = "Snowcone";
featurePrefixes = (
{
automatic = 1;
code = "languagesystem DFLT dflt;\012languagesystem latn dflt;\012";
name = Languagesystems;
}
);
fontMaster = (
{
ascender = 2560;
capHeight = 2048;
descender = "-1024";
id = "5DF6A5AF-1C8C-47E3-A702-CFF98FD4A394";
xHeight = 2048;
}
);
glyphs = (
{
glyphname = unif021;
lastChange = "2012-06-01 16:39:29 +0000";
layers = (
{
layerId = "5DF6A5AF-1C8C-47E3-A702-CFF98FD4A394";
name = Regular;
paths = (
{
closed = 1;
nodes = (
"460 2048 OFFCURVE",
"0 1588 OFFCURVE",
"0 1024 CURVE SMOOTH",
"0 460 OFFCURVE",
"460 0 OFFCURVE",
"1024 0 CURVE SMOOTH",
"1588 0 OFFCURVE",
"2048 460 OFFCURVE",
"2048 1024 CURVE SMOOTH",
"2048 1588 OFFCURVE",
"1588 2048 OFFCURVE",
"1024 2048 CURVE SMOOTH"
);
},
{
closed = 1;
nodes = (
"1545 1111 LINE",
"1716 937 LINE",
"1716 765 LINE",
"1545 591 LINE",
"1024 591 LINE",
"1024 937 LINE",
"1199 937 LINE",
"1024 1111 LINE",
"849 1111 LINE",
"849 591 LINE",
"503 591 LINE",
"503 1111 LINE",
"332 1111 LINE",
"332 1457 LINE",
"1024 1457 LINE",
"1024 1283 LINE",
"1199 1457 LINE",
"1716 1457 LINE",
"1716 1111 LINE"
);
}
);
width = 2048;
}
);
unicode = F021;
},
{
glyphname = unif022;
lastChange = "2012-06-01 16:32:44 +0000";
layers = (
{
layerId = "5DF6A5AF-1C8C-47E3-A702-CFF98FD4A394";
name = Regular;
paths = (
{
closed = 1;
nodes = (
"1664 768 OFFCURVE",
"1536 768 OFFCURVE",
"1536 768 CURVE",
"1348 919 LINE",
"1251 920 LINE",
"1226 1024 LINE",
"1255 1067 OFFCURVE",
"1323 1172 OFFCURVE",
"1344 1226 CURVE",
"1381 1218 OFFCURVE",
"1432 1229 OFFCURVE",
"1425 1358 CURVE",
"1510 1566 OFFCURVE",
"1434 1592 OFFCURVE",
"1389 1592 CURVE",
"1381 1852 OFFCURVE",
"1329 2048 OFFCURVE",
"1024 2048 CURVE SMOOTH",
"719 2048 OFFCURVE",
"668 1852 OFFCURVE",
"659 1592 CURVE",
"616 1594 OFFCURVE",
"531 1574 OFFCURVE",
"618 1358 CURVE",
"611 1227 OFFCURVE",
"665 1218 OFFCURVE",
"702 1227 CURVE",
"723 1169 OFFCURVE",
"795 1070 OFFCURVE",
"825 1024 CURVE",
"798 920 LINE",
"696 920 LINE",
"512 768 LINE",
"512 768 OFFCURVE",
"384 768 OFFCURVE",
"256 640 CURVE SMOOTH",
"128 512 OFFCURVE",
"0 0 OFFCURVE",
"0 0 CURVE",
"2048 0 LINE",
"2048 0 OFFCURVE",
"1920 512 OFFCURVE",
"1792 640 CURVE SMOOTH"
);
},
{
closed = 1;
nodes = (
"1213 198 LINE",
"1024 387 LINE",
"835 198 LINE",
"721 312 LINE",
"911 501 LINE",
"721 690 LINE",
"835 804 LINE",
"1024 614 LINE",
"1213 804 LINE",
"1327 690 LINE",
"1138 501 LINE",
"1327 312 LINE"
);
}
);
width = 2048;
}
);
unicode = F022;
},
{
glyphname = unif023;
lastChange = "2012-06-07 11:03:42 +0000";
layers = (
{
layerId = "5DF6A5AF-1C8C-47E3-A702-CFF98FD4A394";
name = Regular;
paths = (
{
closed = 1;
nodes = (
"0 1024 LINE",
"512 384 LINE",
"2048 384 LINE",
"2048 1664 LINE",
"512 1664 LINE"
);
},
{
closed = 1;
nodes = (
"441 896 OFFCURVE",
"384 953 OFFCURVE",
"384 1024 CURVE SMOOTH",
"384 1095 OFFCURVE",
"441 1152 OFFCURVE",
"512 1152 CURVE SMOOTH",
"583 1152 OFFCURVE",
"640 1095 OFFCURVE",
"640 1024 CURVE SMOOTH",
"640 953 OFFCURVE",
"583 896 OFFCURVE",
"512 896 CURVE SMOOTH"
);
}
);
width = 2048;
}
);
unicode = F023;
},
{
glyphname = unif024;
lastChange = "2012-06-07 10:55:38 +0000";
layers = (
{
layerId = "5DF6A5AF-1C8C-47E3-A702-CFF98FD4A394";
name = Regular;
paths = (
{
closed = 1;
nodes = (
"1595 5 OFFCURVE",
"1580 10 OFFCURVE",
"1567 19 CURVE SMOOTH",
"1024 414 LINE",
"481 19 LINE SMOOTH",
"455 0 OFFCURVE",
"420 0 OFFCURVE",
"394 19 CURVE SMOOTH",
"367 38 OFFCURVE",
"357 72 OFFCURVE",
"366 102 CURVE SMOOTH",
"574 741 LINE",
"31 1135 LINE SMOOTH",
"5 1154 OFFCURVE",
"-6 1188 OFFCURVE",
"4 1219 CURVE SMOOTH",
"14 1249 OFFCURVE",
"42 1270 OFFCURVE",
"75 1270 CURVE SMOOTH",
"746 1270 LINE",
"953 1909 LINE SMOOTH",
"963 1939 OFFCURVE",
"992 1960 OFFCURVE",
"1024 1960 CURVE SMOOTH",
"1056 1960 OFFCURVE",
"1085 1939 OFFCURVE",
"1095 1909 CURVE SMOOTH",
"1302 1270 LINE",
"1974 1270 LINE SMOOTH",
"2006 1270 OFFCURVE",
"2034 1249 OFFCURVE",
"2044 1219 CURVE SMOOTH",
"2054 1188 OFFCURVE",
"2043 1154 OFFCURVE",
"2017 1135 CURVE SMOOTH",
"1474 741 LINE",
"1682 102 LINE SMOOTH",
"1692 72 OFFCURVE",
"1681 38 OFFCURVE",
"1655 19 CURVE SMOOTH",
"1642 10 OFFCURVE",
"1626 5 OFFCURVE",
"1611 5 CURVE SMOOTH"
);
}
);
width = 2048;
}
);
unicode = F024;
},
{
glyphname = unif025;
lastChange = "2012-06-01 16:34:57 +0000";
layers = (
{
layerId = "5DF6A5AF-1C8C-47E3-A702-CFF98FD4A394";
name = Regular;
paths = (
{
closed = 1;
nodes = (
"1457 1166 LINE",
"1507 1087 OFFCURVE",
"1536 995 OFFCURVE",
"1536 896 CURVE SMOOTH",
"1536 613 OFFCURVE",
"1307 384 OFFCURVE",
"1024 384 CURVE SMOOTH",
"741 384 OFFCURVE",
"512 613 OFFCURVE",
"512 896 CURVE SMOOTH",
"512 1085 OFFCURVE",
"616 1248 OFFCURVE",
"768 1337 CURVE",
"768 1024 LINE",
"1408 1536 LINE",
"768 2048 LINE",
"768 1754 LINE",
"398 1644 OFFCURVE",
"128 1302 OFFCURVE",
"128 896 CURVE SMOOTH",
"128 401 OFFCURVE",
"529 0 OFFCURVE",
"1024 0 CURVE SMOOTH",
"1519 0 OFFCURVE",
"1920 401 OFFCURVE",
"1920 896 CURVE SMOOTH",
"1920 1086 OFFCURVE",
"1860 1262 OFFCURVE",
"1759 1407 CURVE"
);
}
);
width = 2048;
}
);
unicode = F025;
},
{
glyphname = unif026;
lastChange = "2012-06-01 16:35:38 +0000";
layers = (
{
layerId = "5DF6A5AF-1C8C-47E3-A702-CFF98FD4A394";
name = Regular;
paths = (
{
closed = 1;
nodes = (
"1792 1024 LINE",
"1792 768 LINE",
"256 768 LINE",
"256 1024 LINE",
"0 1024 LINE",
"0 0 LINE",
"2048 0 LINE",
"2048 0 LINE",
"2048 1024 LINE"
);
},
{
closed = 1;
nodes = (
"768 896 LINE",
"1280 896 LINE",
"1280 1408 LINE",
"1536 1408 LINE",
"1024 2048 LINE",
"512 1408 LINE",
"768 1408 LINE"
);
}
);
width = 2048;
}
);
unicode = F026;
},
{
glyphname = unif027;
lastChange = "2012-06-01 16:36:04 +0000";
layers = (
{
layerId = "5DF6A5AF-1C8C-47E3-A702-CFF98FD4A394";
name = Regular;
paths = (
{
closed = 1;
nodes = (
"1792 1024 LINE",
"1792 768 LINE",
"256 768 LINE",
"256 1024 LINE",
"0 1024 LINE",
"0 0 LINE",
"2048 0 LINE",
"2048 0 LINE",
"2048 1024 LINE"
);
},
{
closed = 1;
nodes = (
"1280 2048 LINE",
"768 2048 LINE",
"768 1536 LINE",
"512 1536 LINE",
"1024 896 LINE",
"1536 1536 LINE",
"1280 1536 LINE"
);
}
);
width = 2048;
}
);
unicode = F027;
},
{
glyphname = unif028;
lastChange = "2012-06-01 16:36:37 +0000";
layers = (
{
layerId = "5DF6A5AF-1C8C-47E3-A702-CFF98FD4A394";
name = Regular;
paths = (
{
closed = 1;
nodes = (
"1536 2048 LINE",
"1536 0 LINE",
"1024 384 LINE",
"512 0 LINE",
"512 2048 LINE"
);
}
);
width = 2048;
}
);
unicode = F028;
},
{
glyphname = unif029;
lastChange = "2012-06-01 16:37:11 +0000";
layers = (
{
layerId = "5DF6A5AF-1C8C-47E3-A702-CFF98FD4A394";
name = Regular;
paths = (
{
closed = 1;
nodes = (
"384 2048 LINE",
"384 0 LINE",
"640 0 LINE",
"640 1024 LINE",
"1920 1024 LINE",
"1536 1536 LINE",
"1920 2048 LINE"
);
}
);
width = 2048;
}
);
unicode = F029;
},
{
glyphname = unif02a;
lastChange = "2012-06-01 16:37:58 +0000";
layers = (
{
layerId = "5DF6A5AF-1C8C-47E3-A702-CFF98FD4A394";
name = Regular;
paths = (
{
closed = 1;
nodes = (
"1920 2048 LINE",
"1920 384 LINE",
"1664 384 LINE",
"1664 1792 LINE",
"512 1792 LINE",
"512 2048 LINE"
);
},
{
closed = 1;
nodes = (
"128 0 LINE",
"1536 0 LINE",
"1536 1664 LINE",
"128 1664 LINE"
);
},
{
closed = 1;
nodes = (
"384 384 LINE",
"384 512 LINE",
"1280 512 LINE",
"1280 384 LINE"
);
},
{
closed = 1;
nodes = (
"384 640 LINE",
"384 768 LINE",
"1280 768 LINE",
"1280 640 LINE"
);
},
{
closed = 1;
nodes = (
"384 896 LINE",
"384 1024 LINE",
"1280 1024 LINE",
"1280 896 LINE"
);
},
{
closed = 1;
nodes = (
"384 1152 LINE",
"384 1280 LINE",
"1280 1280 LINE",
"1280 1152 LINE"
);
}
);
width = 2048;
}
);
unicode = F02A;
},
{
glyphname = unif02b;
lastChange = "2012-06-01 16:38:40 +0000";
layers = (
{
layerId = "5DF6A5AF-1C8C-47E3-A702-CFF98FD4A394";
name = Regular;
paths = (
{
closed = 1;
nodes = (
"1536 1651 OFFCURVE",
"1422 1536 OFFCURVE",
"1280 1536 CURVE SMOOTH",
"1139 1536 OFFCURVE",
"1024 1651 OFFCURVE",
"1024 1792 CURVE SMOOTH",
"1024 1933 OFFCURVE",
"1139 2048 OFFCURVE",
"1280 2048 CURVE SMOOTH",
"1422 2048 OFFCURVE",
"1536 1933 OFFCURVE",
"1536 1792 CURVE SMOOTH"
);
},
{
closed = 1;
nodes = (
"1152 256 OFFCURVE",
"1408 1024 OFFCURVE",
"1408 1152 CURVE SMOOTH",
"1408 1280 OFFCURVE",
"1408 1408 OFFCURVE",
"1152 1408 CURVE SMOOTH",
"896 1408 OFFCURVE",
"640 1024 OFFCURVE",
"640 1024 CURVE",
"896 1152 LINE",
"896 1152 OFFCURVE",
"640 384 OFFCURVE",
"640 256 CURVE SMOOTH",
"640 128 OFFCURVE",
"640 0 OFFCURVE",
"896 0 CURVE SMOOTH",
"1152 0 OFFCURVE",
"1408 384 OFFCURVE",
"1408 384 CURVE",
"1152 256 LINE"
);
}
);
width = 2048;
}
);
unicode = F02B;
},
{
glyphname = unif02c;
lastChange = "2012-06-01 16:40:46 +0000";
layers = (
{
layerId = "5DF6A5AF-1C8C-47E3-A702-CFF98FD4A394";
name = Regular;
paths = (
{
closed = 1;
nodes = (
"1536 1664 LINE",
"1536 2048 LINE",
"1792 2048 LINE",
"1792 1664 LINE"
);
},
{
closed = 1;
nodes = (
"256 1664 LINE",
"256 2048 LINE",
"512 2048 LINE",
"512 1664 LINE"
);
},
{
closed = 1;
nodes = (
"1920 1536 LINE",
"1408 1536 LINE",
"1408 1792 LINE",
"640 1792 LINE",
"640 1536 LINE",
"128 1536 LINE",
"128 1792 LINE",
"0 1792 LINE",
"0 0 LINE",
"2048 0 LINE",
"2048 1792 LINE",
"1920 1792 LINE"
);
},
{
closed = 1;
nodes = (
"128 256 LINE",
"128 512 LINE",
"384 512 LINE",
"384 256 LINE"
);
},
{
closed = 1;
nodes = (
"128 640 LINE",
"128 896 LINE",
"384 896 LINE",
"384 640 LINE"
);
},
{
closed = 1;
nodes = (
"512 256 LINE",
"512 512 LINE",
"768 512 LINE",
"768 256 LINE"
);
},
{
closed = 1;
nodes = (
"512 640 LINE",
"512 896 LINE",
"768 896 LINE",
"768 640 LINE"
);
},
{
closed = 1;
nodes = (
"896 256 LINE",
"896 512 LINE",
"1152 512 LINE",
"1152 256 LINE"
);
},
{
closed = 1;
nodes = (
"896 640 LINE",
"896 896 LINE",
"1152 896 LINE",
"1152 640 LINE"
);
},
{
closed = 1;
nodes = (
"1280 256 LINE",
"1280 512 LINE",
"1536 512 LINE",
"1536 256 LINE"
);
},
{
closed = 1;
nodes = (
"1664 256 LINE",
"1664 512 LINE",
"1920 512 LINE",
"1920 256 LINE"
);
},
{
closed = 1;
nodes = (
"1664 640 LINE",
"1664 896 LINE",
"1920 896 LINE",
"1920 640 LINE"
);
},
{
closed = 1;
nodes = (
"128 1152 LINE",
"128 1280 LINE",
"1920 1280 LINE",
"1920 1152 LINE"
);
}
);
width = 2048;
}
);
unicode = F02C;
},
{
glyphname = unif02d;
lastChange = "2012-06-01 16:41:25 +0000";
layers = (
{
layerId = "5DF6A5AF-1C8C-47E3-A702-CFF98FD4A394";
name = Regular;
paths = (
{
closed = 1;
nodes = (
"1792 1024 LINE",
"1792 768 LINE",
"256 768 LINE",
"256 1024 LINE",
"0 1024 LINE",
"0 0 LINE",
"2048 0 LINE",
"2048 0 LINE",
"2048 1024 LINE"
);
},
{
closed = 1;
nodes = (
"256 256 LINE",
"256 512 LINE",
"512 512 LINE",
"512 256 LINE"
);
},
{
closed = 1;
nodes = (
"384 896 LINE",
"1664 896 LINE",
"1664 2048 LINE",
"384 2048 LINE"
);
},
{
closed = 1;
nodes = (
"640 1152 LINE",
"640 1280 LINE",
"1408 1280 LINE",
"1408 1152 LINE"
);
},
{
closed = 1;
nodes = (
"640 1408 LINE",
"640 1536 LINE",
"1408 1536 LINE",
"1408 1408 LINE"
);
},
{
closed = 1;
nodes = (
"640 1664 LINE",
"640 1792 LINE",
"1408 1792 LINE",
"1408 1664 LINE"
);
}
);
width = 2048;
}
);
unicode = F02D;
},
{
glyphname = unif02e;
lastChange = "2012-06-01 16:42:11 +0000";
layers = (
{
layerId = "5DF6A5AF-1C8C-47E3-A702-CFF98FD4A394";
name = Regular;
paths = (
{
closed = 1;
nodes = (
"1024 2048 LINE",
"0 1024 LINE",
"384 1024 LINE",
"384 0 LINE",
"768 0 LINE",
"768 640 LINE",
"1280 640 LINE",
"1280 0 LINE",
"1664 0 LINE",
"1664 1024 LINE",
"2048 1024 LINE"
);
}
);
width = 2048;
}
);
unicode = F02E;
},
{
glyphname = unif02f;
lastChange = "2012-06-01 16:43:02 +0000";
layers = (
{
layerId = "5DF6A5AF-1C8C-47E3-A702-CFF98FD4A394";
name = Regular;
paths = (
{
closed = 1;
nodes = (
"459 1841 OFFCURVE",
"0 1024 OFFCURVE",
"0 1024 CURVE SMOOTH",
"0 1024 OFFCURVE",
"459 207 OFFCURVE",
"1024 207 CURVE SMOOTH",
"1590 207 OFFCURVE",
"2048 1024 OFFCURVE",
"2048 1024 CURVE SMOOTH",
"2048 1024 OFFCURVE",
"1590 1841 OFFCURVE",
"1024 1841 CURVE SMOOTH"
);
},
{
closed = 1;
nodes = (
"745 516 OFFCURVE",
"508 753 OFFCURVE",
"508 1046 CURVE SMOOTH",
"508 1338 OFFCURVE",
"745 1575 OFFCURVE",
"1038 1575 CURVE SMOOTH",
"1330 1575 OFFCURVE",
"1567 1338 OFFCURVE",
"1567 1046 CURVE SMOOTH",
"1567 753 OFFCURVE",
"1330 516 OFFCURVE",
"1038 516 CURVE SMOOTH"
);
},
{
closed = 1;
nodes = (
"1246 894 OFFCURVE",
"1147 795 OFFCURVE",
"1024 795 CURVE SMOOTH",
"901 795 OFFCURVE",
"802 894 OFFCURVE",
"802 1018 CURVE SMOOTH",
"802 1140 OFFCURVE",
"901 1240 OFFCURVE",
"1024 1240 CURVE SMOOTH",
"1147 1240 OFFCURVE",
"1246 1140 OFFCURVE",
"1246 1018 CURVE SMOOTH"
);
}
);
width = 2048;
}
);
unicode = F02F;
},
{
glyphname = unif030;
lastChange = "2012-06-01 16:43:42 +0000";
layers = (
{
layerId = "5DF6A5AF-1C8C-47E3-A702-CFF98FD4A394";
name = Regular;
paths = (
{
closed = 1;
nodes = (
"559 1236 OFFCURVE",
"640 1280 OFFCURVE",
"768 1280 CURVE SMOOTH",
"1408 1280 LINE",
"1408 1024 LINE",
"2048 1536 LINE",
"1408 2048 LINE",
"1408 1792 LINE",
"768 1792 LINE SMOOTH",
"256 1792 OFFCURVE",
"0 1408 OFFCURVE",
"0 768 CURVE",
"512 1152 LINE"
);
},
{
closed = 1;
nodes = (
"1489 812 OFFCURVE",
"1408 768 OFFCURVE",
"1280 768 CURVE SMOOTH",
"640 768 LINE",
"640 1024 LINE",
"0 512 LINE",
"640 0 LINE",
"640 256 LINE",
"1280 256 LINE SMOOTH",
"1792 256 OFFCURVE",
"2048 640 OFFCURVE",
"2048 1280 CURVE",
"1536 896 LINE"
);
}
);
width = 2048;
}
);
unicode = F030;
},
{
glyphname = unif031;
lastChange = "2012-06-01 16:44:14 +0000";
layers = (
{
layerId = "5DF6A5AF-1C8C-47E3-A702-CFF98FD4A394";
name = Regular;
paths = (
{
closed = 1;
nodes = (
"1536 1664 LINE",
"1536 2048 LINE",
"1792 2048 LINE",
"1792 1664 LINE"
);
},
{
closed = 1;
nodes = (
"256 1664 LINE",
"256 2048 LINE",
"512 2048 LINE",
"512 1664 LINE"
);
},
{
closed = 1;
nodes = (
"1920 1536 LINE",
"1408 1536 LINE",
"1408 1792 LINE",
"640 1792 LINE",
"640 1536 LINE",
"128 1536 LINE",
"128 1792 LINE",
"0 1792 LINE",
"0 0 LINE",
"2048 0 LINE",
"2048 1792 LINE",
"1920 1792 LINE"
);
},
{
closed = 1;
nodes = (
"256 384 LINE",
"256 571 LINE",
"256 571 OFFCURVE",
"257 682 OFFCURVE",
"486 707 CURVE",
"434 754 OFFCURVE",
"397 840 OFFCURVE",
"397 946 CURVE SMOOTH",
"397 1134 OFFCURVE",
"584 1134 OFFCURVE",
"584 1134 CURVE SMOOTH",
"584 1134 OFFCURVE",
"772 1134 OFFCURVE",
"772 946 CURVE SMOOTH",
"772 840 OFFCURVE",
"734 754 OFFCURVE",
"682 707 CURVE",
"912 682 OFFCURVE",
"912 571 OFFCURVE",
"912 571 CURVE",
"912 384 LINE"
);
},
{
closed = 1;
nodes = (
"1152 384 LINE",
"1152 512 LINE",
"1792 512 LINE",
"1792 384 LINE"
);
},
{
closed = 1;
nodes = (
"1152 640 LINE",
"1152 768 LINE",
"1792 768 LINE",
"1792 640 LINE"
);
},
{
closed = 1;
nodes = (
"1152 896 LINE",
"1152 1024 LINE",
"1792 1024 LINE",
"1792 896 LINE"
);
}
);
width = 2048;
}
);
unicode = F031;
},
{
glyphname = unif032;
lastChange = "2012-06-01 16:45:36 +0000";
layers = (
{
layerId = "5DF6A5AF-1C8C-47E3-A702-CFF98FD4A394";
name = Regular;
paths = (
{
closed = 1;
nodes = (
"1536 1819 OFFCURVE",
"1307 2048 OFFCURVE",
"1024 2048 CURVE SMOOTH",
"741 2048 OFFCURVE",
"512 1819 OFFCURVE",
"512 1536 CURVE",
"0 1536 LINE",
"128 0 LINE",
"1920 0 LINE",
"2048 1536 LINE",
"1536 1536 LINE"
);
},
{
closed = 1;
nodes = (
"1244 1934 OFFCURVE",
"1422 1756 OFFCURVE",
"1422 1536 CURVE",
"626 1536 LINE",
"626 1756 OFFCURVE",
"804 1934 OFFCURVE",
"1024 1934 CURVE SMOOTH"
);
}
);
width = 2048;
}
);
unicode = F032;
},
{
glyphname = unif033;
lastChange = "2012-06-01 16:46:05 +0000";
layers = (
{
layerId = "5DF6A5AF-1C8C-47E3-A702-CFF98FD4A394";
name = Regular;
paths = (
{
closed = 1;
nodes = (
"2048 1536 LINE",
"0 1536 LINE",
"0 1152 LINE",
"484 1071 OFFCURVE",
"853 763 OFFCURVE",
"853 256 CURVE",
"1195 256 LINE",
"1195 763 OFFCURVE",
"1564 1071 OFFCURVE",
"2048 1152 CURVE"
);
}
);
width = 2048;
}
);
unicode = F033;
},
{
glyphname = unif034;
lastChange = "2012-06-01 16:46:41 +0000";
layers = (
{
layerId = "5DF6A5AF-1C8C-47E3-A702-CFF98FD4A394";
name = Regular;
paths = (
{
closed = 1;
nodes = (
"2048 1920 LINE",
"0 1920 LINE",
"0 1024 LINE",
"484 943 OFFCURVE",
"853 635 OFFCURVE",
"853 128 CURVE",
"1195 128 LINE",
"1195 635 OFFCURVE",
"1564 943 OFFCURVE",
"2048 1024 CURVE"
);
}
);
width = 2048;
}
);
unicode = F034;
},
{
glyphname = unif035;
lastChange = "2012-06-01 16:47:29 +0000";
layers = (
{
layerId = "5DF6A5AF-1C8C-47E3-A702-CFF98FD4A394";
name = Regular;
paths = (
{
closed = 1;
nodes = (
"2048 1408 LINE",
"0 1408 LINE",
"0 1152 LINE",
"484 1071 OFFCURVE",
"896 763 OFFCURVE",
"896 256 CURVE",
"1152 256 LINE",
"1152 763 OFFCURVE",
"1564 1071 OFFCURVE",
"2048 1152 CURVE"
);
}
);
width = 2048;
}
);
unicode = F035;
},
{
glyphname = unif036;
lastChange = "2012-06-01 16:48:03 +0000";
layers = (
{
layerId = "5DF6A5AF-1C8C-47E3-A702-CFF98FD4A394";
name = Regular;
paths = (
{
closed = 1;
nodes = (
"809 256 LINE SMOOTH",
"730 256 OFFCURVE",
"664 310 OFFCURVE",
"654 389 CURVE",
"652 398 OFFCURVE",
"636 472 OFFCURVE",
"574 542 CURVE SMOOTH",
"486 643 OFFCURVE",
"347 694 OFFCURVE",
"159 694 CURVE SMOOTH",
"73 694 OFFCURVE",
"3 763 OFFCURVE",
"3 849 CURVE SMOOTH",
"0 1489 LINE SMOOTH",
"0 1531 OFFCURVE",
"16 1571 OFFCURVE",
"46 1600 CURVE SMOOTH",
"75 1630 OFFCURVE",
"115 1646 OFFCURVE",
"156 1646 CURVE SMOOTH",
"1892 1646 LINE SMOOTH",
"1978 1646 OFFCURVE",
"2048 1576 OFFCURVE",
"2048 1490 CURVE SMOOTH",
"2048 872 LINE SMOOTH",
"2048 788 OFFCURVE",
"1982 718 OFFCURVE",
"1897 716 CURVE SMOOTH",
"1891 716 OFFCURVE",
"1762 710 OFFCURVE",
"1640 660 CURVE SMOOTH",
"1462 587 OFFCURVE",
"1442 484 OFFCURVE",
"1442 412 CURVE SMOOTH",
"1442 326 OFFCURVE",
"1372 256 OFFCURVE",
"1285 256 CURVE SMOOTH"
);
},
{
closed = 1;
nodes = (
"1150 569 LINE",
"1199 740 OFFCURVE",
"1330 873 OFFCURVE",
"1531 953 CURVE SMOOTH",
"1603 982 OFFCURVE",
"1675 1000 OFFCURVE",
"1735 1011 CURVE",
"1735 1334 LINE",
"313 1334 LINE",
"315 997 LINE",
"582 961 OFFCURVE",
"738 837 OFFCURVE",
"825 730 CURVE SMOOTH",
"871 674 OFFCURVE",
"902 617 OFFCURVE",
"923 569 CURVE"
);
}
);
width = 2048;
}
);
unicode = F036;
},
{
glyphname = unif037;
lastChange = "2012-06-01 16:48:29 +0000";
layers = (
{
layerId = "5DF6A5AF-1C8C-47E3-A702-CFF98FD4A394";
name = Regular;
paths = (
{
closed = 1;
nodes = (
"459 2048 OFFCURVE",
"0 1590 OFFCURVE",
"0 1024 CURVE SMOOTH",
"0 458 OFFCURVE",
"459 0 OFFCURVE",
"1024 0 CURVE SMOOTH",
"1590 0 OFFCURVE",
"2048 458 OFFCURVE",
"2048 1024 CURVE SMOOTH",
"2048 1590 OFFCURVE",
"1590 2048 OFFCURVE",
"1024 2048 CURVE SMOOTH"
);
},
{
closed = 1;
nodes = (
"671 384 OFFCURVE",
"384 670 OFFCURVE",
"384 1024 CURVE SMOOTH",
"384 1378 OFFCURVE",
"671 1664 OFFCURVE",
"1024 1664 CURVE SMOOTH",
"1378 1664 OFFCURVE",
"1664 1378 OFFCURVE",
"1664 1024 CURVE SMOOTH",
"1664 670 OFFCURVE",
"1378 384 OFFCURVE",
"1024 384 CURVE SMOOTH"
);
},
{
closed = 1;
nodes = (
"1280 883 OFFCURVE",
"1165 768 OFFCURVE",
"1024 768 CURVE SMOOTH",
"883 768 OFFCURVE",
"768 883 OFFCURVE",
"768 1024 CURVE SMOOTH",
"768 1165 OFFCURVE",
"883 1280 OFFCURVE",
"1024 1280 CURVE SMOOTH",
"1165 1280 OFFCURVE",
"1280 1165 OFFCURVE",
"1280 1024 CURVE SMOOTH"
);
}
);
width = 2048;
}
);
unicode = F037;
},
{
glyphname = unif038;
lastChange = "2012-06-01 16:48:57 +0000";
layers = (
{
layerId = "5DF6A5AF-1C8C-47E3-A702-CFF98FD4A394";
name = Regular;
paths = (
{
closed = 1;
nodes = (
"384 0 LINE",
"1664 0 LINE",
"1664 1408 LINE",
"384 1408 LINE"
);
},
{
closed = 1;
nodes = (
"768 384 LINE",
"768 1024 LINE",
"896 1024 LINE",
"896 384 LINE"
);
},
{
closed = 1;
nodes = (
"1152 384 LINE",
"1152 1024 LINE",
"1280 1024 LINE",
"1280 384 LINE"
);
},
{
closed = 1;
nodes = (
"1280 2048 LINE",
"768 2048 LINE",
"768 1792 LINE",
"256 1792 LINE",
"256 1536 LINE",
"1792 1536 LINE",
"1792 1792 LINE",
"1280 1792 LINE"
);
},
{
closed = 1;
nodes = (
"896 1792 LINE",
"896 1920 LINE",
"1152 1920 LINE",
"1152 1792 LINE"
);
}
);
width = 2048;
}
);
unicode = F038;
},
{
glyphname = unif039;
lastChange = "2012-06-01 16:49:23 +0000";
layers = (
{
layerId = "5DF6A5AF-1C8C-47E3-A702-CFF98FD4A394";
name = Regular;
paths = (
{
closed = 1;
nodes = (
"1152 1664 LINE",
"1024 1664 LINE",
"1024 1920 LINE",
"768 1920 LINE",
"768 1664 LINE",
"640 1664 LINE",
"640 1920 LINE",
"384 1920 LINE",
"384 1664 LINE",
"256 1664 LINE",
"256 1920 LINE",
"0 1920 LINE",
"0 0 LINE",
"1408 0 LINE",
"1408 1920 LINE",
"1152 1920 LINE"
);
},
{
closed = 1;
nodes = (
"256 384 LINE",
"256 512 LINE",
"1152 512 LINE",
"1152 384 LINE"
);
},
{
closed = 1;
nodes = (
"256 640 LINE",
"256 768 LINE",
"1152 768 LINE",
"1152 640 LINE"
);
},
{
closed = 1;
nodes = (
"256 896 LINE",
"256 1024 LINE",
"1152 1024 LINE",
"1152 896 LINE"
);
},
{
closed = 1;
nodes = (
"256 1152 LINE",
"256 1280 LINE",
"1152 1280 LINE",
"1152 1152 LINE"
);
},
{
closed = 1;
nodes = (
"1536 1536 LINE",
"1536 0 LINE",
"2048 0 LINE",
"2048 1536 LINE"
);
},
{
closed = 1;
nodes = (
"2048 1664 LINE",
"1792 2048 LINE",
"1536 1664 LINE"
);
}
);
width = 2048;
}
);
unicode = F039;
},
{
glyphname = unif03a;
lastChange = "2012-06-01 16:49:46 +0000";
layers = (
{
layerId = "5DF6A5AF-1C8C-47E3-A702-CFF98FD4A394";
name = Regular;
paths = (
{
closed = 1;
nodes = (
"0 1408 LINE",
"2048 1408 LINE",
"1024 2048 LINE"
);
},
{
closed = 1;
nodes = (
"512 1280 LINE",
"384 1280 LINE",
"384 512 LINE",
"512 512 LINE"
);
},
{
closed = 1;
nodes = (
"896 1280 LINE",
"768 1280 LINE",
"768 512 LINE",
"896 512 LINE"
);
},
{
closed = 1;
nodes = (
"1792 256 LINE",
"1792 384 LINE",
"256 384 LINE",
"256 256 LINE",
"128 256 LINE",
"128 128 LINE",
"0 128 LINE",
"0 0 LINE",
"2048 0 LINE",
"2048 128 LINE",
"1920 128 LINE",
"1920 256 LINE"
);
},
{
closed = 1;
nodes = (
"1280 1280 LINE",
"1152 1280 LINE",
"1152 512 LINE",
"1280 512 LINE"
);
},
{
closed = 1;
nodes = (
"1664 1280 LINE",
"1536 1280 LINE",
"1536 512 LINE",
"1664 512 LINE"
);
}
);
width = 2048;
}
);
unicode = F03A;
},
{
glyphname = unif03b;
lastChange = "2012-06-07 11:03:23 +0000";
layers = (
{
layerId = "5DF6A5AF-1C8C-47E3-A702-CFF98FD4A394";
name = Regular;
paths = (
{
closed = 1;
nodes = (
"812 2048 OFFCURVE",
"640 1876 OFFCURVE",
"640 1664 CURVE SMOOTH",
"640 1536 LINE",
"768 1536 LINE",
"768 1664 LINE SMOOTH",
"768 1805 OFFCURVE",
"883 1920 OFFCURVE",
"1024 1920 CURVE SMOOTH",
"1165 1920 OFFCURVE",
"1280 1805 OFFCURVE",
"1280 1664 CURVE SMOOTH",
"1280 1024 LINE",
"1280 896 LINE",
"1280 512 LINE SMOOTH",
"1280 300 OFFCURVE",
"1236 128 OFFCURVE",
"1024 128 CURVE SMOOTH",
"812 128 OFFCURVE",
"768 300 OFFCURVE",
"768 512 CURVE SMOOTH",
"768 1280 LINE",
"640 1280 LINE",
"640 512 LINE SMOOTH",
"640 229 OFFCURVE",
"741 0 OFFCURVE",
"1024 0 CURVE SMOOTH",
"1307 0 OFFCURVE",
"1408 229 OFFCURVE",
"1408 512 CURVE SMOOTH",
"1408 896 LINE",
"1408 1024 LINE",
"1408 1664 LINE SMOOTH",
"1408 1876 OFFCURVE",
"1236 2048 OFFCURVE",
"1024 2048 CURVE SMOOTH"
);
}
);
width = 2048;
}
);
unicode = F03B;
},
{
glyphname = unif03c;
lastChange = "2012-06-07 11:03:17 +0000";
layers = (
{
layerId = "5DF6A5AF-1C8C-47E3-A702-CFF98FD4A394";
name = Regular;
paths = (
{
closed = 1;
nodes = (
"1408 512 LINE SMOOTH",
"1408 300 OFFCURVE",
"1236 128 OFFCURVE",
"1024 128 CURVE SMOOTH",
"812 128 OFFCURVE",
"640 300 OFFCURVE",
"640 512 CURVE SMOOTH",
"640 1664 LINE SMOOTH",
"640 1806 OFFCURVE",
"755 1920 OFFCURVE",
"896 1920 CURVE SMOOTH",
"1037 1920 OFFCURVE",
"1152 1806 OFFCURVE",
"1152 1664 CURVE SMOOTH",
"1152 640 LINE SMOOTH",
"1152 569 OFFCURVE",
"1095 512 OFFCURVE",
"1024 512 CURVE SMOOTH",
"953 512 OFFCURVE",
"896 569 OFFCURVE",
"896 640 CURVE SMOOTH",
"896 1280 LINE",
"768 1280 LINE",
"768 1280 LINE",
"768 640 LINE SMOOTH",
"768 498 OFFCURVE",
"883 384 OFFCURVE",
"1024 384 CURVE SMOOTH",
"1165 384 OFFCURVE",
"1280 498 OFFCURVE",
"1280 640 CURVE SMOOTH",
"1280 1664 LINE SMOOTH",
"1280 1876 OFFCURVE",
"1108 2048 OFFCURVE",
"896 2048 CURVE SMOOTH",
"684 2048 OFFCURVE",
"512 1876 OFFCURVE",
"512 1664 CURVE SMOOTH",
"512 512 LINE SMOOTH",
"512 229 OFFCURVE",
"741 0 OFFCURVE",
"1024 0 CURVE SMOOTH",
"1307 0 OFFCURVE",
"1536 229 OFFCURVE",
"1536 512 CURVE SMOOTH",
"1536 1280 LINE",
"1408 1280 LINE"
);
}
);
width = 2048;
}
);
unicode = F03C;
},
{
glyphname = unif03d;
lastChange = "2012-06-01 16:51:13 +0000";
layers = (
{
layerId = "5DF6A5AF-1C8C-47E3-A702-CFF98FD4A394";
name = Regular;
paths = (
{
closed = 1;
nodes = (
"768 2048 LINE",
"256 2048 LINE",
"256 768 LINE",
"0 768 LINE",
"512 0 LINE",
"1024 768 LINE",
"768 768 LINE"
);
},
{
closed = 1;
nodes = (
"1280 0 LINE",
"1792 0 LINE",
"1792 1280 LINE",
"2048 1280 LINE",
"1536 2048 LINE",
"1024 1280 LINE",
"1280 1280 LINE"
);
}
);
width = 2048;
}
);
unicode = F03D;
},
{
glyphname = unif03e;
lastChange = "2012-06-01 16:51:45 +0000";
layers = (
{
layerId = "5DF6A5AF-1C8C-47E3-A702-CFF98FD4A394";
name = Regular;
paths = (
{
closed = 1;
nodes = (
"1264 1259 OFFCURVE",
"1280 1332 OFFCURVE",
"1280 1408 CURVE",
"1280 1762 OFFCURVE",
"993 2048 OFFCURVE",
"640 2048 CURVE",
"286 2048 OFFCURVE",
"0 1762 OFFCURVE",
"0 1408 CURVE",
"0 1055 OFFCURVE",
"286 768 OFFCURVE",
"640 768 CURVE",
"716 768 OFFCURVE",
"789 784 OFFCURVE",
"857 808 CURVE SMOOTH",
"1025 641 LINE SMOOTH",
"1668 0 LINE SMOOTH",
"2048 0 LINE SMOOTH",
"2048 379 LINE SMOOTH",
"1239 1191 LINE SMOOTH"
);
},
{
closed = 1;
nodes = (
"342 1408 OFFCURVE",
"256 1494 OFFCURVE",
"256 1600 CURVE",
"256 1706 OFFCURVE",
"342 1792 OFFCURVE",
"448 1792 CURVE",
"554 1792 OFFCURVE",
"640 1706 OFFCURVE",
"640 1600 CURVE",
"640 1494 OFFCURVE",
"554 1408 OFFCURVE",
"448 1408 CURVE"
);
},
{
closed = 1;
nodes = (
"1280 896 LINE SMOOTH",
"1280 1024 LINE SMOOTH",
"1920 384 LINE SMOOTH",
"1792 384 LINE SMOOTH"
);
}
);
width = 2048;
}
);
unicode = F03E;
},
{
glyphname = unif040;
lastChange = "2012-06-01 16:52:30 +0000";
layers = (
{
layerId = "5DF6A5AF-1C8C-47E3-A702-CFF98FD4A394";
name = Regular;
paths = (
{
closed = 1;
nodes = (
"1408 1665 LINE",
"640 1665 LINE",
"640 1409 LINE",
"0 1409 LINE",
"0 512 LINE",
"256 512 LINE",
"256 640 LINE",
"512 640 LINE",
"512 512 LINE",
"1536 512 LINE",
"1536 640 LINE",
"1792 640 LINE",
"1792 512 LINE",
"2048 512 LINE",
"2048 384 LINE",
"1792 384 LINE",
"1792 256 LINE",
"1536 256 LINE",
"1536 384 LINE",
"512 384 LINE",
"512 256 LINE",
"256 256 LINE",
"256 384 LINE",
"0 384 LINE",
"0 0 LINE",
"2048 0 LINE",
"2048 1409 LINE",
"1408 1409 LINE"
);
},
{
closed = 1;
nodes = (
"1280 1537 LINE",
"1280 1409 LINE",
"768 1409 LINE",
"768 1537 LINE"
);
}
);
width = 2048;
}
);
unicode = F040;
},
{
glyphname = unif041;
lastChange = "2012-06-01 17:03:46 +0000";
layers = (
{
layerId = "5DF6A5AF-1C8C-47E3-A702-CFF98FD4A394";
name = Regular;
paths = (
{
closed = 1;
nodes = (
"1024 1205 LINE",
"662 1567 LINE",
"481 1386 LINE",
"843 1024 LINE",
"481 662 LINE",
"662 481 LINE",
"1024 843 LINE",
"1386 481 LINE",
"1567 662 LINE",
"1205 1024 LINE",
"1567 1386 LINE",
"1386 1567 LINE"
);
}
);
width = 2048;
}
);
unicode = F041;
},
{
glyphname = unif042;
lastChange = "2012-06-01 16:53:26 +0000";
layers = (
{
layerId = "5DF6A5AF-1C8C-47E3-A702-CFF98FD4A394";
name = Regular;
paths = (
{
closed = 1;
nodes = (
"2048 1024 LINE",
"1280 1664 LINE",
"0 1664 LINE",
"0 384 LINE",
"1280 384 LINE"
);
},
{
closed = 1;
nodes = (
"409 1491 LINE",
"704 1196 LINE",
"1000 1491 LINE",
"1177 1314 LINE",
"881 1019 LINE",
"1177 723 LINE",
"1000 546 LINE",
"704 841 LINE",
"409 546 LINE",
"231 723 LINE",
"527 1019 LINE",
"231 1314 LINE"
);
}
);
width = 2048;
}
);
unicode = F042;
},
{
glyphname = unif043;
lastChange = "2012-06-01 16:53:45 +0000";
layers = (
{
layerId = "5DF6A5AF-1C8C-47E3-A702-CFF98FD4A394";
name = Regular;
paths = (
{
closed = 1;
nodes = (
"0 1024 LINE",
"768 384 LINE",
"2048 384 LINE",
"2048 1664 LINE",
"768 1664 LINE"
);
},
{
closed = 1;
nodes = (
"1639 557 LINE",
"1344 852 LINE",
"1049 557 LINE",
"871 734 LINE",
"1167 1030 LINE",
"871 1325 LINE",
"1049 1502 LINE",
"1344 1207 LINE",
"1639 1502 LINE",
"1817 1325 LINE",
"1521 1030 LINE",
"1817 734 LINE"
);
}
);
width = 2048;
}
);
unicode = F043;
},
{
glyphname = unif044;
lastChange = "2012-06-01 16:54:15 +0000";
layers = (
{
layerId = "5DF6A5AF-1C8C-47E3-A702-CFF98FD4A394";
name = Regular;
paths = (
{
closed = 1;
nodes = (
"896 1281 LINE",
"512 1537 LINE",
"0 1537 LINE",
"0 0 LINE",
"2048 0 LINE",
"2048 1281 LINE"
);
},
{
closed = 1;
nodes = (
"640 1921 LINE",
"128 1921 LINE",
"128 1665 LINE",
"640 1665 LINE",
"1024 1409 LINE",
"2048 1409 LINE",
"2048 1665 LINE",
"1024 1665 LINE"
);
}
);
width = 2048;
}
);
unicode = F044;
},
{
glyphname = unif045;
lastChange = "2012-06-01 16:54:35 +0000";
layers = (
{
layerId = "5DF6A5AF-1C8C-47E3-A702-CFF98FD4A394";
name = Regular;
paths = (
{
closed = 1;
nodes = (
"1792 2048 LINE",
"1408 2048 LINE",
"1408 1920 LINE",
"0 1920 LINE",
"0 1664 LINE",
"1408 1664 LINE",
"1408 1536 LINE",
"1792 1536 LINE",
"1792 1664 LINE",
"2048 1664 LINE",
"2048 1920 LINE",
"1792 1920 LINE"
);
},
{
closed = 1;
nodes = (
"256 1280 LINE",
"256 1152 LINE",
"0 1152 LINE",
"0 896 LINE",
"256 896 LINE",
"256 768 LINE",
"640 768 LINE",
"640 896 LINE",
"2048 896 LINE",
"2048 1152 LINE",
"640 1152 LINE",
"640 1280 LINE"
);
},
{
closed = 1;
nodes = (
"1408 512 LINE",
"1408 384 LINE",
"0 384 LINE",
"0 128 LINE",
"1408 128 LINE",
"1408 0 LINE",
"1792 0 LINE",
"1792 128 LINE",
"2048 128 LINE",
"2048 384 LINE",
"1792 384 LINE",
"1792 512 LINE"
);
}
);
width = 2048;
}
);
unicode = F045;
},
{
glyphname = unif046;
lastChange = "2012-06-01 16:55:20 +0000";
layers = (
{
layerId = "5DF6A5AF-1C8C-47E3-A702-CFF98FD4A394";
name = Regular;
paths = (
{
closed = 1;
nodes = (
"2048 458 OFFCURVE",
"1590 0 OFFCURVE",
"1024 0 CURVE SMOOTH",
"459 0 OFFCURVE",
"0 458 OFFCURVE",
"0 1024 CURVE SMOOTH",
"0 1590 OFFCURVE",
"459 2048 OFFCURVE",
"1024 2048 CURVE SMOOTH",
"1590 2048 OFFCURVE",
"2048 1590 OFFCURVE",
"2048 1024 CURVE SMOOTH"
);
}
);
width = 2048;
}
);
unicode = F046;
},
{
glyphname = unif047;
lastChange = "2012-06-01 16:55:48 +0000";
layers = (
{
layerId = "5DF6A5AF-1C8C-47E3-A702-CFF98FD4A394";
name = Regular;
paths = (
{
closed = 1;
nodes = (
"256 1152 LINE",
"1792 1152 LINE",
"1024 2048 LINE"
);
},
{
closed = 1;
nodes = (
"1792 896 LINE",
"256 896 LINE",
"1024 0 LINE"
);
}
);
width = 2048;
}
);
unicode = F047;
},
{
glyphname = unif048;
lastChange = "2012-06-01 16:56:24 +0000";
layers = (
{
layerId = "5DF6A5AF-1C8C-47E3-A702-CFF98FD4A394";
name = Regular;
paths = (
{
closed = 1;
nodes = (
"256 576 LINE",
"1792 576 LINE",
"1024 1472 LINE"
);
}
);
width = 2048;
}
);
unicode = F048;
},
{
glyphname = unif049;
lastChange = "2012-06-01 16:56:44 +0000";
layers = (
{
layerId = "5DF6A5AF-1C8C-47E3-A702-CFF98FD4A394";
name = Regular;
paths = (
{
closed = 1;
nodes = (
"1792 1472 LINE",
"256 1472 LINE",
"1024 576 LINE"
);
}
);
width = 2048;
}
);
unicode = F049;
},
{
glyphname = unif04a;
lastChange = "2012-06-01 16:57:12 +0000";
layers = (
{
layerId = "5DF6A5AF-1C8C-47E3-A702-CFF98FD4A394";
name = Regular;
paths = (
{
closed = 1;
nodes = (
"0 2048 LINE",
"731 1108 LINE",
"731 0 LINE",
"1317 293 LINE",
"1317 1108 LINE",
"2048 2048 LINE"
);
}
);
width = 2048;
}
);
unicode = F04A;
},
{
glyphname = unif04b;
lastChange = "2012-06-01 16:57:36 +0000";
layers = (
{
layerId = "5DF6A5AF-1C8C-47E3-A702-CFF98FD4A394";
name = Regular;
paths = (
{
closed = 1;
nodes = (
"459 2048 OFFCURVE",
"0 1590 OFFCURVE",
"0 1024 CURVE SMOOTH",
"0 458 OFFCURVE",
"459 0 OFFCURVE",
"1024 0 CURVE SMOOTH",
"1590 0 OFFCURVE",
"2048 458 OFFCURVE",
"2048 1024 CURVE SMOOTH",
"2048 1590 OFFCURVE",
"1590 2048 OFFCURVE",
"1024 2048 CURVE SMOOTH"
);
},
{
closed = 1;
nodes = (
"1253 567 OFFCURVE",
"1070 292 OFFCURVE",
"887 292 CURVE SMOOTH",
"704 292 OFFCURVE",
"704 384 OFFCURVE",
"704 475 CURVE SMOOTH",
"704 567 OFFCURVE",
"887 1116 OFFCURVE",
"887 1116 CURVE",
"704 1024 LINE",
"704 1024 OFFCURVE",
"887 1298 OFFCURVE",
"1070 1298 CURVE SMOOTH",
"1253 1298 OFFCURVE",
"1253 1207 OFFCURVE",
"1253 1116 CURVE SMOOTH",
"1253 1024 OFFCURVE",
"1070 475 OFFCURVE",
"1070 475 CURVE",
"1253 567 LINE"
);
},
{
closed = 1;
nodes = (
"1060 1390 OFFCURVE",
"978 1472 OFFCURVE",
"978 1573 CURVE SMOOTH",
"978 1674 OFFCURVE",
"1060 1756 OFFCURVE",
"1161 1756 CURVE SMOOTH",
"1262 1756 OFFCURVE",
"1344 1674 OFFCURVE",
"1344 1573 CURVE SMOOTH",
"1344 1472 OFFCURVE",
"1262 1390 OFFCURVE",
"1161 1390 CURVE SMOOTH"
);
}
);
width = 2048;
}
);
unicode = F04B;
},
{
glyphname = unif04c;
lastChange = "2012-06-01 16:58:10 +0000";
layers = (
{
layerId = "5DF6A5AF-1C8C-47E3-A702-CFF98FD4A394";
name = Regular;
paths = (
{
closed = 1;
nodes = (
"0 640 LINE",
"0 1921 LINE",
"1280 1921 LINE",
"1280 640 LINE"
);
},
{
closed = 1;
nodes = (
"1408 640 LINE",
"1408 1281 LINE",
"1408 1281 OFFCURVE",
"1408 1281 OFFCURVE",
"1664 1281 CURVE SMOOTH",
"1920 1281 OFFCURVE",
"2048 640 OFFCURVE",
"2048 640 CURVE SMOOTH"
);
},
{
closed = 1;
nodes = (
"640 115 OFFCURVE",
"526 0 OFFCURVE",
"384 0 CURVE SMOOTH",
"243 0 OFFCURVE",
"128 115 OFFCURVE",
"128 256 CURVE SMOOTH",
"128 398 OFFCURVE",
"243 512 OFFCURVE",
"384 512 CURVE SMOOTH",
"526 512 OFFCURVE",
"640 398 OFFCURVE",
"640 256 CURVE SMOOTH"
);
},
{
closed = 1;
nodes = (
"1920 115 OFFCURVE",
"1806 0 OFFCURVE",
"1664 0 CURVE SMOOTH",
"1523 0 OFFCURVE",
"1408 115 OFFCURVE",
"1408 256 CURVE SMOOTH",
"1408 398 OFFCURVE",
"1523 512 OFFCURVE",
"1664 512 CURVE SMOOTH",
"1806 512 OFFCURVE",
"1920 398 OFFCURVE",
"1920 256 CURVE SMOOTH"
);
}
);
width = 2048;
}
);
unicode = F04C;
},
{
glyphname = unif04d;
lastChange = "2012-06-01 16:58:41 +0000";
layers = (
{
layerId = "5DF6A5AF-1C8C-47E3-A702-CFF98FD4A394";
name = Regular;
paths = (
{
closed = 1;
nodes = (
"2048 1536 LINE SMOOTH",
"2048 1677 OFFCURVE",
"1933 1792 OFFCURVE",
"1792 1792 CURVE SMOOTH",
"256 1792 LINE SMOOTH",
"115 1792 OFFCURVE",
"0 1677 OFFCURVE",
"0 1536 CURVE SMOOTH",
"0 1408 LINE",
"2048 1408 LINE"
);
},
{
closed = 1;
nodes = (
"0 512 LINE SMOOTH",
"0 370 OFFCURVE",
"115 256 OFFCURVE",
"256 256 CURVE SMOOTH",
"1792 256 LINE SMOOTH",
"1933 256 OFFCURVE",
"2048 370 OFFCURVE",
"2048 512 CURVE SMOOTH",
"2048 1152 LINE",
"0 1152 LINE"
);
},
{
closed = 1;
nodes = (
"256 768 LINE",
"256 896 LINE",
"640 896 LINE",
"640 768 LINE"
);
},
{
closed = 1;
nodes = (
"768 768 LINE",
"768 896 LINE",
"1280 896 LINE",
"1280 768 LINE"
);
},
{
closed = 1;
nodes = (
"1408 768 LINE",
"1408 896 LINE",
"1792 896 LINE",
"1792 768 LINE"
);
}
);
width = 2048;
}
);
unicode = F04D;
},
{
glyphname = unif04e;
lastChange = "2012-06-01 16:59:42 +0000";
layers = (
{
layerId = "5DF6A5AF-1C8C-47E3-A702-CFF98FD4A394";
name = Regular;
paths = (
{
closed = 1;
nodes = (
"459 2048 OFFCURVE",
"0 1590 OFFCURVE",
"0 1024 CURVE SMOOTH",
"0 458 OFFCURVE",
"459 0 OFFCURVE",
"1024 0 CURVE SMOOTH",
"1590 0 OFFCURVE",
"2048 458 OFFCURVE",
"2048 1024 CURVE SMOOTH",
"2048 1590 OFFCURVE",
"1590 2048 OFFCURVE",
"1024 2048 CURVE SMOOTH"
);
},
{
closed = 1;
nodes = (
"938 415 OFFCURVE",
"870 483 OFFCURVE",
"870 568 CURVE SMOOTH",
"870 653 OFFCURVE",
"938 721 OFFCURVE",
"1023 721 CURVE SMOOTH",
"1108 721 OFFCURVE",
"1176 653 OFFCURVE",
"1176 568 CURVE SMOOTH",
"1176 483 OFFCURVE",
"1108 415 OFFCURVE",
"1023 415 CURVE SMOOTH"
);
},
{
closed = 1;
nodes = (
"1161 938 OFFCURVE",
"1148 899 OFFCURVE",
"1148 863 CURVE SMOOTH",
"1148 814 LINE",
"898 814 LINE",
"898 888 LINE SMOOTH",
"898 954 OFFCURVE",
"915 997 OFFCURVE",
"957 1037 CURVE SMOOTH",
"1080 1156 OFFCURVE",
"1170 1210 OFFCURVE",
"1170 1287 CURVE SMOOTH",
"1170 1360 OFFCURVE",
"1118 1404 OFFCURVE",
"1050 1404 CURVE SMOOTH",
"947 1404 OFFCURVE",
"892 1337 OFFCURVE",
"885 1255 CURVE",
"629 1272 LINE",
"652 1507 OFFCURVE",
"814 1633 OFFCURVE",
"1045 1633 CURVE SMOOTH",
"1248 1633 OFFCURVE",
"1419 1520 OFFCURVE",
"1419 1305 CURVE SMOOTH",
"1419 1179 OFFCURVE",
"1371 1102 OFFCURVE",
"1213 978 CURVE SMOOTH"
);
}
);
width = 2048;
}
);
unicode = F04E;
},
{
glyphname = unif050;
lastChange = "2012-06-01 17:00:18 +0000";
layers = (
{
layerId = "5DF6A5AF-1C8C-47E3-A702-CFF98FD4A394";
name = Regular;
paths = (
{
closed = 1;
nodes = (
"714 0 LINE",
"920 85 LINE",
"207 1842 LINE",
"0 1757 LINE"
);
},
{
closed = 1;
nodes = (
"1613 1886 OFFCURVE",
"1319 1484 OFFCURVE",
"886 1918 CURVE",
"886 1917 LINE",
"576 2235 OFFCURVE",
"307 1874 OFFCURVE",
"307 1874 CURVE",
"743 827 LINE",
"743 827 OFFCURVE",
"924 1341 OFFCURVE",
"1470 795 CURVE",
"1470 795 LINE",
"1779 478 OFFCURVE",
"2048 839 OFFCURVE",
"2048 839 CURVE",
"1613 1886 LINE"
);
}
);
width = 2048;
}
);
unicode = F050;
},
{
glyphname = unif051;
lastChange = "2012-06-01 17:01:24 +0000";
layers = (
{
layerId = "5DF6A5AF-1C8C-47E3-A702-CFF98FD4A394";
name = Regular;
paths = (
{
closed = 1;
nodes = (
"2035 1509 OFFCURVE",
"1990 1587 OFFCURVE",
"1901 1666 CURVE SMOOTH",
"1812 1746 OFFCURVE",
"1675 1829 OFFCURVE",
"1494 1829 CURVE SMOOTH",
"1313 1829 OFFCURVE",
"1177 1746 OFFCURVE",
"1090 1666 CURVE SMOOTH",
"1063 1641 OFFCURVE",
"1040 1617 OFFCURVE",
"1022 1595 CURVE",
"1003 1617 OFFCURVE",
"979 1642 OFFCURVE",
"951 1666 CURVE SMOOTH",
"863 1746 OFFCURVE",
"725 1829 OFFCURVE",
"544 1829 CURVE SMOOTH",
"363 1829 OFFCURVE",
"227 1746 OFFCURVE",
"140 1666 CURVE SMOOTH",
"53 1586 OFFCURVE",
"10 1508 OFFCURVE",
"7 1503 CURVE",
"-2 1467 LINE",
"-2 294 LINE",
"138 258 LINE",
"139 258 LINE",
"141 262 OFFCURVE",
"178 327 OFFCURVE",
"247 388 CURVE SMOOTH",
"317 449 OFFCURVE",
"414 506 OFFCURVE",
"544 506 CURVE SMOOTH",
"678 506 OFFCURVE",
"780 445 OFFCURVE",
"852 381 CURVE SMOOTH",
"888 350 OFFCURVE",
"915 318 OFFCURVE",
"933 294 CURVE SMOOTH",
"942 282 OFFCURVE",
"948 272 OFFCURVE",
"952 266 CURVE SMOOTH",
"954 263 OFFCURVE",
"956 261 OFFCURVE",
"957 259 CURVE",
"969 235 OFFCURVE",
"994 219 OFFCURVE",
"1023 219 CURVE SMOOTH",
"1052 219 OFFCURVE",
"1078 236 OFFCURVE",
"1090 261 CURVE",
"1097 273 OFFCURVE",
"1134 332 OFFCURVE",
"1197 388 CURVE SMOOTH",
"1267 449 OFFCURVE",
"1364 506 OFFCURVE",
"1494 506 CURVE SMOOTH",
"1628 506 OFFCURVE",
"1730 445 OFFCURVE",
"1802 381 CURVE SMOOTH",
"1837 350 OFFCURVE",
"1865 318 OFFCURVE",
"1882 294 CURVE SMOOTH",
"1891 282 OFFCURVE",
"1898 272 OFFCURVE",
"1902 266 CURVE SMOOTH",
"1904 262 OFFCURVE",
"1906 260 OFFCURVE",
"1907 258 CURVE",
"1907 258 OFFCURVE",
"1908 257 OFFCURVE",
"1908 257 CURVE",
"1908 257 LINE",
"2047 294 LINE",
"2047 1467 LINE",
"2038 1504 LINE"
);
},
{
closed = 1;
nodes = (
"859 575 OFFCURVE",
"723 656 OFFCURVE",
"544 656 CURVE SMOOTH",
"544 656 LINE SMOOTH",
"368 656 OFFCURVE",
"235 577 OFFCURVE",
"148 500 CURVE",
"148 1446 LINE",
"163 1469 OFFCURVE",
"197 1516 OFFCURVE",
"247 1561 CURVE SMOOTH",
"317 1622 OFFCURVE",
"414 1679 OFFCURVE",
"544 1679 CURVE SMOOTH",
"678 1679 OFFCURVE",
"780 1618 OFFCURVE",
"852 1554 CURVE SMOOTH",
"888 1523 OFFCURVE",
"915 1490 OFFCURVE",
"933 1467 CURVE SMOOTH",
"939 1458 OFFCURVE",
"944 1451 OFFCURVE",
"948 1445 CURVE",
"948 496 LINE"
);
},
{
closed = 1;
nodes = (
"1809 575 OFFCURVE",
"1673 656 OFFCURVE",
"1494 656 CURVE SMOOTH",
"1318 656 OFFCURVE",
"1185 577 OFFCURVE",
"1098 500 CURVE",
"1098 1446 LINE",
"1113 1469 OFFCURVE",
"1146 1516 OFFCURVE",
"1197 1561 CURVE SMOOTH",
"1267 1622 OFFCURVE",
"1364 1679 OFFCURVE",
"1494 1679 CURVE SMOOTH",
"1628 1679 OFFCURVE",
"1730 1618 OFFCURVE",
"1802 1554 CURVE SMOOTH",
"1837 1523 OFFCURVE",
"1865 1490 OFFCURVE",
"1882 1467 CURVE SMOOTH",
"1889 1458 OFFCURVE",
"1894 1451 OFFCURVE",
"1898 1445 CURVE",
"1898 496 LINE"
);
},
{
closed = 0;
nodes = (
"237 1374 LINE",
"299 1293 LINE",
"307 1282 LINE",
"310 1285 OFFCURVE",
"391 1342 OFFCURVE",
"555 1342 CURVE SMOOTH",
"642 1342 OFFCURVE",
"706 1326 OFFCURVE",
"749 1310 CURVE SMOOTH",
"770 1302 OFFCURVE",
"786 1294 OFFCURVE",
"796 1289 CURVE SMOOTH",
"801 1286 OFFCURVE",
"804 1284 OFFCURVE",
"806 1283 CURVE",
"807 1282 OFFCURVE",
"808 1282 OFFCURVE",
"808 1282 CURVE",
"808 1281 LINE",
"808 1281 LINE",
"827 1308 LINE",
"875 1375 LINE",
"869 1380 OFFCURVE",
"758 1458 OFFCURVE",
"555 1457 CURVE SMOOTH",
"351 1458 OFFCURVE",
"244 1380 OFFCURVE",
"237 1374 CURVE"
);
},
{
closed = 1;
nodes = (
"310 1035 OFFCURVE",
"391 1093 OFFCURVE",
"555 1093 CURVE SMOOTH",
"642 1093 OFFCURVE",
"707 1076 OFFCURVE",
"749 1060 CURVE SMOOTH",
"770 1053 OFFCURVE",
"786 1045 OFFCURVE",
"796 1039 CURVE SMOOTH",
"801 1037 OFFCURVE",
"804 1035 OFFCURVE",
"806 1033 CURVE",
"807 1033 OFFCURVE",
"808 1032 OFFCURVE",
"808 1032 CURVE",
"808 1032 LINE",
"826 1058 LINE",
"875 1125 LINE",
"875 1125 LINE",
"869 1131 OFFCURVE",
"758 1208 OFFCURVE",
"555 1208 CURVE SMOOTH",
"351 1208 OFFCURVE",
"244 1130 OFFCURVE",
"237 1125 CURVE",
"307 1033 LINE",
"299 1044 LINE",
"307 1033 LINE"
);
},
{
closed = 0;
nodes = (
"237 875 LINE",
"301 791 LINE",
"299 794 LINE",
"307 783 LINE",
"307 783 LINE",
"314 788 OFFCURVE",
"395 843 OFFCURVE",
"555 843 CURVE SMOOTH",
"642 843 OFFCURVE",
"707 827 OFFCURVE",
"749 811 CURVE SMOOTH",
"770 803 OFFCURVE",
"786 795 OFFCURVE",
"796 790 CURVE SMOOTH",
"801 787 OFFCURVE",
"804 785 OFFCURVE",
"806 784 CURVE",
"807 783 OFFCURVE",
"808 783 OFFCURVE",
"808 783 CURVE",
"808 783 OFFCURVE",
"808 783 OFFCURVE",
"808 782 CURVE",
"808 782 LINE",
"827 809 LINE",
"875 876 LINE",
"869 881 OFFCURVE",
"758 959 OFFCURVE",
"555 958 CURVE SMOOTH",
"351 959 OFFCURVE",
"244 881 OFFCURVE",
"237 875 CURVE"
);
},
{
closed = 0;
nodes = (
"1764 1281 LINE",
"1783 1308 LINE",
"1764 1282 LINE",
"1764 1282 LINE",
"1764 1281 OFFCURVE",
"1764 1281 OFFCURVE",
"1764 1281 CURVE"
);
},
{
closed = 1;
nodes = (
"1263 1282 LINE",
"1263 1282 LINE",
"1267 1285 OFFCURVE",
"1348 1342 OFFCURVE",
"1511 1342 CURVE SMOOTH",
"1598 1342 OFFCURVE",
"1663 1326 OFFCURVE",
"1705 1310 CURVE SMOOTH",
"1726 1302 OFFCURVE",
"1742 1294 OFFCURVE",
"1752 1289 CURVE SMOOTH",
"1757 1286 OFFCURVE",
"1760 1284 OFFCURVE",
"1762 1283 CURVE",
"1763 1282 OFFCURVE",
"1764 1282 OFFCURVE",
"1764 1282 CURVE",
"1832 1375 LINE",
"1825 1380 OFFCURVE",
"1714 1458 OFFCURVE",
"1511 1457 CURVE SMOOTH",
"1307 1458 OFFCURVE",
"1200 1380 OFFCURVE",
"1193 1374 CURVE",
"1263 1282 LINE",
"1255 1293 LINE"
);
},
{
closed = 1;
nodes = (
"1267 1035 OFFCURVE",
"1347 1093 OFFCURVE",
"1511 1093 CURVE SMOOTH",
"1598 1093 OFFCURVE",
"1663 1076 OFFCURVE",
"1705 1060 CURVE SMOOTH",
"1726 1053 OFFCURVE",
"1742 1045 OFFCURVE",
"1752 1039 CURVE SMOOTH",
"1757 1037 OFFCURVE",
"1760 1035 OFFCURVE",
"1762 1033 CURVE SMOOTH",
"1763 1033 OFFCURVE",
"1764 1032 OFFCURVE",
"1764 1032 CURVE SMOOTH",
"1764 1032 OFFCURVE",
"1764 1032 OFFCURVE",
"1764 1032 CURVE",
"1783 1058 LINE",
"1832 1125 LINE",
"1832 1125 LINE",
"1825 1131 OFFCURVE",
"1714 1208 OFFCURVE",
"1511 1208 CURVE SMOOTH",
"1307 1208 OFFCURVE",
"1200 1130 OFFCURVE",
"1193 1125 CURVE",
"1263 1033 LINE",
"1255 1044 LINE",
"1263 1033 LINE"
);
},
{
closed = 0;
nodes = (
"1193 875 LINE",
"1255 794 LINE",
"1263 783 LINE",
"1263 783 LINE",
"1270 788 OFFCURVE",
"1351 843 OFFCURVE",
"1511 843 CURVE SMOOTH",
"1598 843 OFFCURVE",
"1663 827 OFFCURVE",
"1705 811 CURVE SMOOTH",
"1726 803 OFFCURVE",
"1742 795 OFFCURVE",
"1752 790 CURVE SMOOTH",
"1757 787 OFFCURVE",
"1760 785 OFFCURVE",
"1762 784 CURVE",
"1763 783 OFFCURVE",
"1764 783 OFFCURVE",
"1764 783 CURVE",
"1764 783 OFFCURVE",
"1764 783 OFFCURVE",
"1764 782 CURVE",
"1764 782 LINE",
"1783 809 LINE",
"1832 876 LINE",
"1825 881 OFFCURVE",
"1714 959 OFFCURVE",
"1511 958 CURVE SMOOTH",
"1307 959 OFFCURVE",
"1200 881 OFFCURVE",
"1193 875 CURVE"
);
}
);
width = 2048;
}
);
unicode = F051;
},
{
glyphname = unif052;
lastChange = "2012-06-01 17:02:21 +0000";
layers = (
{
layerId = "5DF6A5AF-1C8C-47E3-A702-CFF98FD4A394";
name = Regular;
paths = (
{
closed = 1;
nodes = (
"1646 1779 OFFCURVE",
"1560 1779 OFFCURVE",
"1507 1725 CURVE SMOOTH",
"1453 1672 OFFCURVE",
"1453 1586 OFFCURVE",
"1507 1532 CURVE SMOOTH",
"1773 1266 OFFCURVE",
"1773 833 OFFCURVE",
"1507 567 CURVE SMOOTH",
"1240 300 OFFCURVE",
"808 300 OFFCURVE",
"541 567 CURVE SMOOTH",
"275 833 OFFCURVE",
"275 1266 OFFCURVE",
"541 1532 CURVE SMOOTH",
"595 1586 OFFCURVE",
"595 1672 OFFCURVE",
"541 1725 CURVE SMOOTH",
"488 1779 OFFCURVE",
"402 1779 OFFCURVE",
"348 1725 CURVE SMOOTH",
"-25 1352 OFFCURVE",
"-25 747 OFFCURVE",
"348 374 CURVE SMOOTH",
"721 0 OFFCURVE",
"1327 0 OFFCURVE",
"1700 374 CURVE SMOOTH",
"2073 747 OFFCURVE",
"2073 1352 OFFCURVE",
"1700 1725 CURVE SMOOTH"
);
},
{
closed = 1;
nodes = (
"948 2142 OFFCURVE",
"887 2081 OFFCURVE",
"887 2005 CURVE SMOOTH",
"887 1186 LINE SMOOTH",
"887 1111 OFFCURVE",
"948 1050 OFFCURVE",
"1024 1050 CURVE SMOOTH",
"1099 1050 OFFCURVE",
"1160 1111 OFFCURVE",
"1160 1186 CURVE SMOOTH",
"1160 2005 LINE SMOOTH",
"1160 2081 OFFCURVE",
"1099 2142 OFFCURVE",
"1024 2142 CURVE SMOOTH"
);
}
);
width = 2048;
}
);
unicode = F052;
},
{
glyphname = unif053;
lastChange = "2012-06-01 17:02:55 +0000";
layers = (
{
layerId = "5DF6A5AF-1C8C-47E3-A702-CFF98FD4A394";
name = Regular;
paths = (
{
closed = 1;
nodes = (
"459 2048 OFFCURVE",
"0 1590 OFFCURVE",
"0 1024 CURVE SMOOTH",
"0 458 OFFCURVE",
"459 0 OFFCURVE",
"1024 0 CURVE SMOOTH",
"1590 0 OFFCURVE",
"2048 458 OFFCURVE",
"2048 1024 CURVE SMOOTH",
"2048 1590 OFFCURVE",
"1590 2048 OFFCURVE",
"1024 2048 CURVE SMOOTH"
);
},
{
closed = 1;
nodes = (
"896 384 LINE",
"896 640 LINE",
"1152 640 LINE",
"1152 384 LINE"
);
},
{
closed = 1;
nodes = (
"896 896 LINE",
"896 1664 LINE",
"1152 1664 LINE",
"1152 896 LINE"
);
}
);
width = 2048;
}
);
unicode = F053;
},
{
glyphname = unif054;
lastChange = "2012-06-01 17:03:21 +0000";
layers = (
{
layerId = "5DF6A5AF-1C8C-47E3-A702-CFF98FD4A394";
name = Regular;
paths = (
{
closed = 1;
nodes = (
"1024 1408 LINE",
"384 2048 LINE",
"0 1664 LINE",
"640 1024 LINE",
"0 384 LINE",
"384 0 LINE",
"1024 640 LINE",
"1664 0 LINE",
"2048 384 LINE",
"1408 1024 LINE",
"2048 1664 LINE",
"1664 2048 LINE"
);
}
);
width = 2048;
}
);
unicode = F054;
},
{
glyphname = unif055;
lastChange = "2012-06-01 17:05:47 +0000";
layers = (
{
layerId = "5DF6A5AF-1C8C-47E3-A702-CFF98FD4A394";
name = Regular;
paths = (
{
closed = 1;
nodes = (
"1280 1280 LINE",
"1280 2048 LINE",
"768 2048 LINE",
"768 1280 LINE",
"0 1280 LINE",
"0 768 LINE",
"768 768 LINE",
"768 0 LINE",
"1280 0 LINE",
"1280 768 LINE",
"2048 768 LINE",
"2048 1280 LINE"
);
}
);
width = 2048;
}
);
unicode = F055;
},
{
glyphname = unif056;
lastChange = "2012-06-01 17:06:49 +0000";
layers = (
{
layerId = "5DF6A5AF-1C8C-47E3-A702-CFF98FD4A394";
name = Regular;
paths = (
{
closed = 1;
nodes = (
"256 768 LINE",
"640 512 LINE",
"2048 1792 LINE",
"640 0 LINE",
"0 512 LINE"
);
}
);
width = 2048;
}
);
unicode = F056;
},
{
glyphname = unif057;
lastChange = "2012-06-01 17:07:16 +0000";
layers = (
{
layerId = "5DF6A5AF-1C8C-47E3-A702-CFF98FD4A394";
name = Regular;
paths = (
{
closed = 1;
nodes = (
"0 1280 LINE",
"0 768 LINE",
"2048 768 LINE",
"2048 1280 LINE"
);
}
);
width = 2048;
}
);
unicode = F057;
},
{
glyphname = unif058;
lastChange = "2012-06-06 09:28:41 +0000";
layers = (
{
layerId = "5DF6A5AF-1C8C-47E3-A702-CFF98FD4A394";
name = Regular;
paths = (
{
closed = 1;
nodes = (
"1024 1024 LINE",
"341 1707 LINE",
"0 1365 LINE",
"1024 341 LINE",
"2048 1365 LINE",
"1707 1707 LINE"
);
}
);
width = 2048;
}
);
unicode = F058;
},
{
glyphname = unif059;
lastChange = "2012-06-06 09:29:19 +0000";
layers = (
{
layerId = "5DF6A5AF-1C8C-47E3-A702-CFF98FD4A394";
name = Regular;
paths = (
{
closed = 1;
nodes = (
"1024 1024 LINE",
"1707 341 LINE",
"2048 683 LINE",
"1024 1707 LINE",
"0 683 LINE",
"341 341 LINE"
);
}
);
width = 2048;
}
);
unicode = F059;
},
{
glyphname = unif05a;
lastChange = "2012-06-06 09:29:53 +0000";
layers = (
{
layerId = "5DF6A5AF-1C8C-47E3-A702-CFF98FD4A394";
name = Regular;
paths = (
{
closed = 1;
nodes = (
"1024 1024 LINE",
"341 342 LINE",
"683 0 LINE",
"1707 1024 LINE",
"683 2048 LINE",
"341 1707 LINE"
);
}
);
width = 2048;
}
);
unicode = F05A;
},
{
glyphname = unif05b;
lastChange = "2012-06-06 09:31:01 +0000";
layers = (
{
layerId = "5DF6A5AF-1C8C-47E3-A702-CFF98FD4A394";
name = Regular;
paths = (
{
closed = 1;
nodes = (
"1024 1024 LINE",
"1707 1707 LINE",
"1365 2048 LINE",
"341 1024 LINE",
"1365 0 LINE",
"1707 341 LINE"
);
}
);
width = 2048;
}
);
unicode = F05B;
},
{
glyphname = unif05c;
lastChange = "2012-06-06 09:33:09 +0000";
layers = (
{
layerId = "5DF6A5AF-1C8C-47E3-A702-CFF98FD4A394";
name = Regular;
paths = (
{
closed = 1;
nodes = (
"1024 512 LINE",
"2048 1536 LINE",
"0 1536 LINE"
);
}
);
width = 2048;
}
);
unicode = F05C;
},
{
glyphname = unif05d;
lastChange = "2012-06-06 09:34:02 +0000";
layers = (
{
layerId = "5DF6A5AF-1C8C-47E3-A702-CFF98FD4A394";
name = Regular;
paths = (
{
closed = 1;
nodes = (
"1024 1536 LINE",
"0 512 LINE",
"2048 512 LINE"
);
}
);
width = 2048;
}
);
unicode = F05D;
},
{
glyphname = unif05e;
lastChange = "2012-06-06 09:35:03 +0000";
layers = (
{
layerId = "5DF6A5AF-1C8C-47E3-A702-CFF98FD4A394";
name = Regular;
paths = (
{
closed = 1;
nodes = (
"1536 1024 LINE",
"512 2048 LINE",
"512 0 LINE"
);
}
);
width = 2048;
}
);
unicode = F05E;
},
{
glyphname = unif060;
lastChange = "2012-06-06 09:35:26 +0000";
layers = (
{
layerId = "5DF6A5AF-1C8C-47E3-A702-CFF98FD4A394";
name = Regular;
paths = (
{
closed = 1;
nodes = (
"512 1024 LINE",
"1536 0 LINE",
"1536 2048 LINE"
);
}
);
width = 2048;
}
);
unicode = F060;
},
{
glyphname = unif061;
lastChange = "2012-06-07 11:03:36 +0000";
layers = (
{
layerId = "5DF6A5AF-1C8C-47E3-A702-CFF98FD4A394";
name = Regular;
paths = (
{
closed = 1;
nodes = (
"1664 768 OFFCURVE",
"1536 768 OFFCURVE",
"1536 768 CURVE",
"1348 919 LINE",
"1251 920 LINE",
"1226 1024 LINE",
"1255 1067 OFFCURVE",
"1323 1172 OFFCURVE",
"1344 1226 CURVE",
"1381 1219 OFFCURVE",
"1432 1229 OFFCURVE",
"1425 1358 CURVE",
"1510 1566 OFFCURVE",
"1434 1592 OFFCURVE",
"1389 1592 CURVE",
"1381 1852 OFFCURVE",
"1329 2048 OFFCURVE",
"1024 2048 CURVE SMOOTH",
"719 2048 OFFCURVE",
"668 1852 OFFCURVE",
"659 1592 CURVE",
"616 1594 OFFCURVE",
"531 1574 OFFCURVE",
"618 1358 CURVE",
"611 1227 OFFCURVE",
"665 1218 OFFCURVE",
"702 1227 CURVE",
"723 1169 OFFCURVE",
"795 1070 OFFCURVE",
"825 1024 CURVE",
"798 920 LINE",
"696 920 LINE",
"512 768 LINE",
"512 768 OFFCURVE",
"384 768 OFFCURVE",
"256 640 CURVE SMOOTH",
"128 512 OFFCURVE",
"0 0 OFFCURVE",
"0 0 CURVE",
"2048 0 LINE",
"2048 0 OFFCURVE",
"1920 512 OFFCURVE",
"1792 640 CURVE SMOOTH"
);
}
);
width = 2048;
}
);
unicode = F061;
},
{
glyphname = unif062;
lastChange = "2012-06-06 09:36:37 +0000";
layers = (
{
layerId = "5DF6A5AF-1C8C-47E3-A702-CFF98FD4A394";
name = Regular;
paths = (
{
closed = 1;
nodes = (
"1429 891 LINE",
"1497 1005 OFFCURVE",
"1536 1138 OFFCURVE",
"1536 1280 CURVE SMOOTH",
"1536 1704 OFFCURVE",
"1192 2048 OFFCURVE",
"768 2048 CURVE SMOOTH",
"344 2048 OFFCURVE",
"0 1704 OFFCURVE",
"0 1280 CURVE SMOOTH",
"0 856 OFFCURVE",
"344 512 OFFCURVE",
"768 512 CURVE SMOOTH",
"910 512 OFFCURVE",
"1043 552 OFFCURVE",
"1157 619 CURVE",
"1776 0 LINE",
"2048 272 LINE"
);
},
{
closed = 1;
nodes = (
"256 1563 OFFCURVE",
"485 1792 OFFCURVE",
"768 1792 CURVE SMOOTH",
"1051 1792 OFFCURVE",
"1280 1563 OFFCURVE",
"1280 1280 CURVE SMOOTH",
"1280 997 OFFCURVE",
"1051 768 OFFCURVE",
"768 768 CURVE SMOOTH",
"485 768 OFFCURVE",
"256 997 OFFCURVE",
"256 1280 CURVE SMOOTH"
);
}
);
width = 2048;
}
);
unicode = F062;
},
{
glyphname = unif063;
lastChange = "2012-06-06 09:37:04 +0000";
layers = (
{
layerId = "5DF6A5AF-1C8C-47E3-A702-CFF98FD4A394";
name = Regular;
paths = (
{
closed = 1;
nodes = (
"0 512 LINE",
"1152 512 LINE",
"1664 0 LINE",
"1664 512 LINE",
"2048 512 LINE",
"2048 2048 LINE",
"0 2048 LINE"
);
},
{
closed = 1;
nodes = (
"384 1024 LINE",
"384 1152 LINE",
"1664 1152 LINE",
"1664 1024 LINE"
);
},
{
closed = 1;
nodes = (
"384 1408 LINE",
"384 1536 LINE",
"1664 1536 LINE",
"1664 1408 LINE"
);
}
);
width = 2048;
}
);
unicode = F063;
},
{
glyphname = unif064;
lastChange = "2012-06-06 09:37:23 +0000";
layers = (
{
layerId = "5DF6A5AF-1C8C-47E3-A702-CFF98FD4A394";
name = Regular;
paths = (
{
closed = 1;
nodes = (
"2048 1216 LINE",
"1767 1216 LINE",
"1749 1286 OFFCURVE",
"1721 1353 OFFCURVE",
"1685 1414 CURVE",
"1884 1612 LINE",
"1612 1884 LINE",
"1414 1685 LINE",
"1353 1721 OFFCURVE",
"1286 1749 OFFCURVE",
"1216 1767 CURVE",
"1216 2048 LINE",
"832 2048 LINE",
"832 1767 LINE",
"762 1749 OFFCURVE",
"696 1721 OFFCURVE",
"635 1685 CURVE",
"436 1884 LINE",
"164 1612 LINE",
"363 1414 LINE",
"327 1353 OFFCURVE",
"299 1286 OFFCURVE",
"281 1216 CURVE",
"0 1216 LINE",
"0 832 LINE",
"281 832 LINE",
"299 762 OFFCURVE",
"327 695 OFFCURVE",
"363 634 CURVE",
"164 436 LINE",
"436 164 LINE",
"635 363 LINE",
"696 327 OFFCURVE",
"762 299 OFFCURVE",
"832 281 CURVE",
"832 0 LINE",
"1216 0 LINE",
"1216 281 LINE",
"1286 299 OFFCURVE",
"1353 327 OFFCURVE",
"1414 363 CURVE",
"1612 164 LINE",
"1884 436 LINE",
"1685 634 LINE",
"1721 695 OFFCURVE",
"1749 762 OFFCURVE",
"1767 832 CURVE",
"2048 832 LINE"
);
},
{
closed = 1;
nodes = (
"1408 812 OFFCURVE",
"1236 640 OFFCURVE",
"1024 640 CURVE SMOOTH",
"812 640 OFFCURVE",
"640 812 OFFCURVE",
"640 1024 CURVE SMOOTH",
"640 1236 OFFCURVE",
"812 1408 OFFCURVE",
"1024 1408 CURVE SMOOTH",
"1236 1408 OFFCURVE",
"1408 1236 OFFCURVE",
"1408 1024 CURVE SMOOTH"
);
}
);
width = 2048;
}
);
unicode = F064;
},
{
glyphname = unif065;
lastChange = "2012-06-06 09:37:51 +0000";
layers = (
{
layerId = "5DF6A5AF-1C8C-47E3-A702-CFF98FD4A394";
name = Regular;
paths = (
{
closed = 1;
nodes = (
"2048 1536 LINE",
"768 256 LINE",
"256 768 LINE",
"1536 2048 LINE"
);
},
{
closed = 1;
nodes = (
"128 640 LINE",
"640 128 LINE",
"0 0 LINE"
);
}
);
width = 2048;
}
);
unicode = F065;
},
{
glyphname = unif066;
lastChange = "2012-06-06 09:38:13 +0000";
layers = (
{
layerId = "5DF6A5AF-1C8C-47E3-A702-CFF98FD4A394";
name = Regular;
paths = (
{
closed = 1;
nodes = (
"0 1408 LINE",
"1024 640 LINE",
"2048 1408 LINE"
);
},
{
closed = 1;
nodes = (
"0 0 LINE",
"2048 0 LINE",
"2048 1152 LINE",
"1024 384 LINE",
"0 1152 LINE"
);
}
);
width = 2048;
}
);
unicode = F066;
},
{
glyphname = unif067;
lastChange = "2012-06-06 09:38:31 +0000";
layers = (
{
layerId = "5DF6A5AF-1C8C-47E3-A702-CFF98FD4A394";
name = Regular;
paths = (
{
closed = 1;
nodes = (
"0 0 LINE",
"2048 0 LINE",
"2048 1152 LINE",
"1024 384 LINE",
"0 1152 LINE"
);
},
{
closed = 1;
nodes = (
"0 1408 LINE",
"1024 640 LINE",
"2048 1408 LINE",
"1024 2048 LINE"
);
}
);
width = 2048;
}
);
unicode = F067;
},
{
glyphname = unif068;
lastChange = "2012-06-06 09:39:00 +0000";
layers = (
{
layerId = "5DF6A5AF-1C8C-47E3-A702-CFF98FD4A394";
name = Regular;
paths = (
{
closed = 1;
nodes = (
"1152 256 LINE",
"1152 1792 LINE",
"1664 1792 LINE",
"1664 256 LINE"
);
},
{
closed = 1;
nodes = (
"384 256 LINE",
"1024 0 LINE",
"1024 2048 LINE",
"384 1792 LINE"
);
},
{
closed = 1;
nodes = (
"797 896 OFFCURVE",
"768 953 OFFCURVE",
"768 1024 CURVE SMOOTH",
"768 1095 OFFCURVE",
"797 1152 OFFCURVE",
"832 1152 CURVE SMOOTH",
"867 1152 OFFCURVE",
"896 1095 OFFCURVE",
"896 1024 CURVE SMOOTH",
"896 953 OFFCURVE",
"867 896 OFFCURVE",
"832 896 CURVE SMOOTH"
);
}
);
width = 2048;
}
);
unicode = F068;
},
{
glyphname = unif069;
lastChange = "2012-06-06 09:39:34 +0000";
layers = (
{
layerId = "5DF6A5AF-1C8C-47E3-A702-CFF98FD4A394";
name = Regular;
paths = (
{
closed = 1;
nodes = (
"1461 2209 OFFCURVE",
"1024 1600 OFFCURVE",
"1024 1600 CURVE SMOOTH",
"1024 1600 OFFCURVE",
"587 2209 OFFCURVE",
"139 1747 CURVE SMOOTH",
"-451 1139 OFFCURVE",
"1024 128 OFFCURVE",
"1024 128 CURVE SMOOTH",
"1024 128 OFFCURVE",
"2499 1139 OFFCURVE",
"1909 1747 CURVE SMOOTH"
);
}
);
width = 2048;
}
);
unicode = F069;
},
{
glyphname = unif06a;
lastChange = "2012-06-06 09:43:00 +0000";
layers = (
{
layerId = "5DF6A5AF-1C8C-47E3-A702-CFF98FD4A394";
name = Regular;
paths = (
{
closed = 1;
nodes = (
"808 2048 OFFCURVE",
"-3 1237 OFFCURVE",
"-3 832 CURVE SMOOTH",
"-3 427 OFFCURVE",
"132 157 OFFCURVE",
"267 22 CURVE SMOOTH",
"402 -114 OFFCURVE",
"943 427 OFFCURVE",
"808 562 CURVE SMOOTH",
"673 697 OFFCURVE",
"402 697 OFFCURVE",
"402 832 CURVE SMOOTH",
"402 967 OFFCURVE",
"1078 1643 OFFCURVE",
"1213 1643 CURVE SMOOTH",
"1348 1643 OFFCURVE",
"1348 1373 OFFCURVE",
"1483 1237 CURVE SMOOTH",
"1618 1102 OFFCURVE",
"2159 1643 OFFCURVE",
"2024 1778 CURVE SMOOTH",
"1889 1913 OFFCURVE",
"1618 2048 OFFCURVE",
"1213 2048 CURVE SMOOTH"
);
}
);
width = 2048;
}
);
unicode = F06A;
},
{
glyphname = unif06b;
lastChange = "2012-06-06 09:57:53 +0000";
layers = (
{
layerId = "5DF6A5AF-1C8C-47E3-A702-CFF98FD4A394";
name = Regular;
paths = (
{
closed = 1;
nodes = (
"2048 0 LINE",
"2048 1131 OFFCURVE",
"1131 2048 OFFCURVE",
"0 2048 CURVE",
"0 1536 LINE",
"848 1536 OFFCURVE",
"1536 848 OFFCURVE",
"1536 0 CURVE"
);
},
{
closed = 1;
nodes = (
"1280 0 LINE",
"1280 707 OFFCURVE",
"707 1280 OFFCURVE",
"0 1280 CURVE",
"0 768 LINE",
"424 768 OFFCURVE",
"768 424 OFFCURVE",
"768 0 CURVE"
);
},
{
closed = 1;
nodes = (
"448 348 OFFCURVE",
"348 448 OFFCURVE",
"224 448 CURVE SMOOTH",
"100 448 OFFCURVE",
"0 348 OFFCURVE",
"0 224 CURVE SMOOTH",
"0 100 OFFCURVE",
"100 0 OFFCURVE",
"224 0 CURVE SMOOTH",
"348 0 OFFCURVE",
"448 100 OFFCURVE",
"448 224 CURVE SMOOTH"
);
}
);
width = 2048;
}
);
unicode = F06B;
},
{
glyphname = unif06c;
lastChange = "2012-06-06 09:58:40 +0000";
layers = (
{
layerId = "5DF6A5AF-1C8C-47E3-A702-CFF98FD4A394";
name = Regular;
paths = (
{
closed = 1;
nodes = (
"1662 936 LINE",
"1543 1055 OFFCURVE",
"1366 1078 OFFCURVE",
"1223 1010 CURVE SMOOTH",
"1007 1226 LINE SMOOTH",
"1076 1369 OFFCURVE",
"1052 1545 OFFCURVE",
"933 1664 CURVE",
"660 1938 LINE",
"509 2089 OFFCURVE",
"264 2089 OFFCURVE",
"113 1938 CURVE",
"-38 1787 OFFCURVE",
"-38 1542 OFFCURVE",
"113 1391 CURVE",
"386 1118 LINE",
"505 999 OFFCURVE",
"682 975 OFFCURVE",
"825 1044 CURVE SMOOTH",
"1041 828 LINE SMOOTH",
"973 684 OFFCURVE",
"996 508 OFFCURVE",
"1115 389 CURVE",
"1388 116 LINE",
"1539 -35 OFFCURVE",
"1784 -35 OFFCURVE",
"1935 116 CURVE",
"2086 267 OFFCURVE",
"2086 511 OFFCURVE",
"1935 662 CURVE"
);
},
{
closed = 1;
nodes = (
"245 1624 OFFCURVE",
"245 1705 OFFCURVE",
"295 1755 CURVE",
"346 1806 OFFCURVE",
"427 1806 OFFCURVE",
"478 1755 CURVE",
"751 1482 LINE",
"768 1465 OFFCURVE",
"777 1444 OFFCURVE",
"782 1423 CURVE SMOOTH",
"740 1434 OFFCURVE",
"693 1424 OFFCURVE",
"660 1391 CURVE",
"626 1358 OFFCURVE",
"617 1311 OFFCURVE",
"628 1268 CURVE SMOOTH",
"606 1274 OFFCURVE",
"586 1283 OFFCURVE",
"569 1300 CURVE",
"295 1573 LINE"
);
},
{
closed = 1;
nodes = (
"1702 248 OFFCURVE",
"1621 248 OFFCURVE",
"1570 298 CURVE",
"1297 571 LINE",
"1280 588 OFFCURVE",
"1271 609 OFFCURVE",
"1266 631 CURVE SMOOTH",
"1308 620 OFFCURVE",
"1355 629 OFFCURVE",
"1388 663 CURVE",
"1422 696 OFFCURVE",
"1431 743 OFFCURVE",
"1420 785 CURVE SMOOTH",
"1441 780 OFFCURVE",
"1462 771 OFFCURVE",
"1479 754 CURVE",
"1753 480 LINE",
"1803 430 OFFCURVE",
"1803 348 OFFCURVE",
"1753 298 CURVE"
);
}
);
width = 2048;
}
);
unicode = F06C;
},
{
glyphname = unif06d;
lastChange = "2012-06-06 10:00:27 +0000";
layers = (
{
layerId = "5DF6A5AF-1C8C-47E3-A702-CFF98FD4A394";
name = Regular;
paths = (
{
closed = 1;
nodes = (
"458 2048 OFFCURVE",
"0 1589 OFFCURVE",
"0 1024 CURVE SMOOTH",
"0 458 OFFCURVE",
"458 0 OFFCURVE",
"1024 0 CURVE SMOOTH",
"1590 0 OFFCURVE",
"2048 458 OFFCURVE",
"2048 1024 CURVE SMOOTH",
"2048 1589 OFFCURVE",
"1590 2048 OFFCURVE",
"1024 2048 CURVE SMOOTH"
);
},
{
closed = 1;
nodes = (
"1190 1792 OFFCURVE",
"1343 1739 OFFCURVE",
"1469 1649 CURVE",
"399 579 LINE",
"309 705 OFFCURVE",
"256 858 OFFCURVE",
"256 1024 CURVE SMOOTH",
"256 1448 OFFCURVE",
"600 1792 OFFCURVE",
"1024 1792 CURVE SMOOTH"
);
},
{
closed = 1;
nodes = (
"858 256 OFFCURVE",
"705 309 OFFCURVE",
"580 398 CURVE",
"1650 1468 LINE",
"1739 1343 OFFCURVE",
"1792 1190 OFFCURVE",
"1792 1024 CURVE SMOOTH",
"1792 600 OFFCURVE",
"1448 256 OFFCURVE",
"1024 256 CURVE SMOOTH"
);
}
);
width = 2048;
}
);
unicode = F06D;
},
{
glyphname = unif06e;
lastChange = "2012-06-06 10:01:11 +0000";
layers = (
{
layerId = "5DF6A5AF-1C8C-47E3-A702-CFF98FD4A394";
name = Regular;
paths = (
{
closed = 1;
nodes = (
"512 2048 OFFCURVE",
"256 1664 OFFCURVE",
"256 1280 CURVE SMOOTH",
"256 768 OFFCURVE",
"1024 0 OFFCURVE",
"1024 0 CURVE SMOOTH",
"1024 0 OFFCURVE",
"1792 768 OFFCURVE",
"1792 1280 CURVE SMOOTH",
"1792 1664 OFFCURVE",
"1536 2048 OFFCURVE",
"1024 2048 CURVE SMOOTH"
);
},
{
closed = 1;
nodes = (
"812 896 OFFCURVE",
"640 1068 OFFCURVE",
"640 1280 CURVE SMOOTH",
"640 1492 OFFCURVE",
"812 1664 OFFCURVE",
"1024 1664 CURVE SMOOTH",
"1236 1664 OFFCURVE",
"1408 1492 OFFCURVE",
"1408 1280 CURVE SMOOTH",
"1408 1068 OFFCURVE",
"1236 896 OFFCURVE",
"1024 896 CURVE SMOOTH"
);
}
);
width = 2048;
}
);
unicode = F06E;
},
{
glyphname = unif070;
lastChange = "2012-06-07 10:57:09 +0000";
layers = (
{
layerId = "5DF6A5AF-1C8C-47E3-A702-CFF98FD4A394";
name = Regular;
paths = (
{
closed = 1;
nodes = (
"711 1556 OFFCURVE",
"561 1738 OFFCURVE",
"394 1743 CURVE SMOOTH",
"391 1743 OFFCURVE",
"389 1743 OFFCURVE",
"387 1743 CURVE SMOOTH",
"322 1743 OFFCURVE",
"265 1717 OFFCURVE",
"222 1667 CURVE SMOOTH",
"157 1594 OFFCURVE",
"130 1479 OFFCURVE",
"147 1351 CURVE SMOOTH",
"175 1132 OFFCURVE",
"333 962 OFFCURVE",
"513 957 CURVE SMOOTH",
"516 956 OFFCURVE",
"518 956 OFFCURVE",
"521 956 CURVE SMOOTH",
"587 956 OFFCURVE",
"642 980 OFFCURVE",
"681 1024 CURVE SMOOTH",
"737 1088 OFFCURVE",
"759 1193 OFFCURVE",
"742 1319 CURVE SMOOTH"
);
},
{
closed = 1;
nodes = (
"680 336 OFFCURVE",
"660 350 OFFCURVE",
"640 364 CURVE",
"587 381 OFFCURVE",
"531 390 OFFCURVE",
"473 390 CURVE SMOOTH",
"466 390 LINE SMOOTH",
"268 390 OFFCURVE",
"89 290 OFFCURVE",
"20 156 CURVE",
"59 64 OFFCURVE",
"150 0 OFFCURVE",
"257 0 CURVE SMOOTH",
"934 0 LINE",
"934 9 OFFCURVE",
"935 18 OFFCURVE",
"935 28 CURVE SMOOTH",
"935 50 OFFCURVE",
"932 73 OFFCURVE",
"927 95 CURVE SMOOTH",
"903 185 OFFCURVE",
"818 243 OFFCURVE",
"700 323 CURVE SMOOTH"
);
},
{
closed = 1;
nodes = (
"108 502 OFFCURVE",
"237 536 OFFCURVE",
"382 536 CURVE SMOOTH",
"400 536 OFFCURVE",
"417 536 OFFCURVE",
"434 536 CURVE",
"402 575 OFFCURVE",
"376 622 OFFCURVE",
"376 686 CURVE SMOOTH",
"376 719 OFFCURVE",
"382 752 OFFCURVE",
"395 787 CURVE",
"389 787 OFFCURVE",
"383 787 OFFCURVE",
"378 787 CURVE SMOOTH",
"227 787 OFFCURVE",
"97 835 OFFCURVE",
"-1 920 CURVE",
"-1 446 LINE"
);
},
{
closed = 1;
nodes = (
"1761 1024 LINE",
"1729 1024 LINE",
"1569 1024 LINE",
"1537 1024 LINE",
"1537 1056 LINE",
"1537 1344 LINE",
"1249 1344 LINE",
"1217 1344 LINE",
"1217 1376 LINE",
"1217 1536 LINE",
"1217 1568 LINE",
"1249 1568 LINE",
"1537 1568 LINE",
"1537 1856 LINE",
"1537 1888 LINE",
"1569 1888 LINE",
"1729 1888 LINE",
"1761 1888 LINE",
"1761 1856 LINE",
"1761 1568 LINE",
"2049 1568 LINE",
"2049 1792 LINE SMOOTH",
"2049 1933 OFFCURVE",
"1934 2048 OFFCURVE",
"1793 2048 CURVE SMOOTH",
"257 2048 LINE SMOOTH",
"115 2048 OFFCURVE",
"-1 1933 OFFCURVE",
"-1 1792 CURVE SMOOTH",
"-1 1725 LINE",
"127 1843 OFFCURVE",
"307 1920 OFFCURVE",
"499 1920 CURVE SMOOTH",
"1193 1920 LINE",
"1268 1920 LINE",
"1216 1866 LINE",
"1061 1703 LINE",
"1052 1693 LINE",
"1038 1693 LINE",
"950 1693 LINE",
"1035 1608 OFFCURVE",
"1085 1480 OFFCURVE",
"1085 1333 CURVE SMOOTH",
"1085 1185 OFFCURVE",
"1009 1048 OFFCURVE",
"867 937 CURVE SMOOTH",
"751 846 OFFCURVE",
"740 816 OFFCURVE",
"740 755 CURVE SMOOTH",
"740 709 OFFCURVE",
"868 614 OFFCURVE",
"916 578 CURVE SMOOTH",
"932 567 LINE SMOOTH",
"1153 401 OFFCURVE",
"1214 291 OFFCURVE",
"1214 57 CURVE SMOOTH",
"1214 38 OFFCURVE",
"1212 19 OFFCURVE",
"1210 0 CURVE",
"1793 0 LINE SMOOTH",
"1934 0 OFFCURVE",
"2049 115 OFFCURVE",
"2049 256 CURVE SMOOTH",
"2049 1344 LINE",
"1761 1344 LINE",
"1761 1056 LINE"
);
}
);
width = 2048;
}
);
unicode = F070;
},
{
glyphname = unif071;
lastChange = "2012-06-06 10:02:16 +0000";
layers = (
{
layerId = "5DF6A5AF-1C8C-47E3-A702-CFF98FD4A394";
name = Regular;
paths = (
{
closed = 1;
nodes = (
"256 2048 LINE SMOOTH",
"115 2048 OFFCURVE",
"0 1933 OFFCURVE",
"0 1792 CURVE SMOOTH",
"0 256 LINE SMOOTH",
"0 115 OFFCURVE",
"115 0 OFFCURVE",
"256 0 CURVE SMOOTH",
"1792 0 LINE SMOOTH",
"1933 0 OFFCURVE",
"2048 115 OFFCURVE",
"2048 256 CURVE SMOOTH",
"2048 1792 LINE SMOOTH",
"2048 1933 OFFCURVE",
"1933 2048 OFFCURVE",
"1792 2048 CURVE SMOOTH"
);
},
{
closed = 1;
nodes = (
"1457 899 LINE",
"1457 146 LINE",
"1170 146 LINE",
"1170 899 LINE",
"971 899 LINE",
"971 1170 LINE",
"1170 1170 LINE",
"1170 1170 OFFCURVE",
"1170 1281 OFFCURVE",
"1170 1402 CURVE SMOOTH",
"1170 1584 OFFCURVE",
"1288 1751 OFFCURVE",
"1559 1751 CURVE SMOOTH",
"1669 1751 OFFCURVE",
"1750 1740 OFFCURVE",
"1750 1740 CURVE",
"1743 1487 LINE",
"1743 1487 OFFCURVE",
"1661 1488 OFFCURVE",
"1570 1488 CURVE SMOOTH",
"1473 1488 OFFCURVE",
"1457 1443 OFFCURVE",
"1457 1368 CURVE SMOOTH",
"1457 1358 OFFCURVE",
"1457 1355 OFFCURVE",
"1457 1355 CURVE",
"1457 1334 OFFCURVE",
"1457 1283 OFFCURVE",
"1457 1170 CURVE",
"1751 1170 LINE",
"1738 899 LINE"
);
}
);
width = 2048;
}
);
unicode = F071;
},
{
glyphname = unif072;
lastChange = "2012-06-07 15:40:41 +0000";
layers = (
{
layerId = "5DF6A5AF-1C8C-47E3-A702-CFF98FD4A394";
name = Regular;
paths = (
{
closed = 1;
nodes = (
"256 2048 LINE SMOOTH",
"115 2048 OFFCURVE",
"0 1933 OFFCURVE",
"0 1792 CURVE SMOOTH",
"0 256 LINE SMOOTH",
"0 115 OFFCURVE",
"115 0 OFFCURVE",
"256 0 CURVE SMOOTH",
"1792 0 LINE SMOOTH",
"1933 0 OFFCURVE",
"2048 115 OFFCURVE",
"2048 256 CURVE SMOOTH",
"2048 1792 LINE SMOOTH",
"2048 1933 OFFCURVE",
"1933 2048 OFFCURVE",
"1792 2048 CURVE SMOOTH"
);
},
{
closed = 1;
nodes = (
"1651 1332 OFFCURVE",
"1651 1318 OFFCURVE",
"1651 1304 CURVE SMOOTH",
"1651 876 OFFCURVE",
"1326 384 OFFCURVE",
"732 384 CURVE SMOOTH",
"549 384 OFFCURVE",
"379 437 OFFCURVE",
"236 529 CURVE",
"262 526 OFFCURVE",
"287 525 OFFCURVE",
"313 525 CURVE SMOOTH",
"465 525 OFFCURVE",
"604 576 OFFCURVE",
"715 663 CURVE",
"573 665 OFFCURVE",
"454 759 OFFCURVE",
"413 887 CURVE",
"433 884 OFFCURVE",
"453 882 OFFCURVE",
"474 882 CURVE SMOOTH",
"503 882 OFFCURVE",
"532 886 OFFCURVE",
"559 893 CURVE",
"411 923 OFFCURVE",
"300 1053 OFFCURVE",
"300 1210 CURVE SMOOTH",
"300 1211 OFFCURVE",
"300 1213 OFFCURVE",
"300 1214 CURVE",
"343 1190 OFFCURVE",
"393 1175 OFFCURVE",
"446 1174 CURVE",
"359 1232 OFFCURVE",
"302 1331 OFFCURVE",
"302 1443 CURVE SMOOTH",
"302 1502 OFFCURVE",
"318 1557 OFFCURVE",
"346 1605 CURVE",
"505 1410 OFFCURVE",
"744 1281 OFFCURVE",
"1012 1267 CURVE",
"1007 1291 OFFCURVE",
"1004 1316 OFFCURVE",
"1004 1341 CURVE SMOOTH",
"1004 1520 OFFCURVE",
"1149 1664 OFFCURVE",
"1327 1664 CURVE SMOOTH",
"1420 1664 OFFCURVE",
"1504 1625 OFFCURVE",
"1563 1562 CURVE",
"1637 1577 OFFCURVE",
"1706 1604 OFFCURVE",
"1768 1641 CURVE",
"1744 1565 OFFCURVE",
"1693 1502 OFFCURVE",
"1626 1462 CURVE",
"1692 1470 OFFCURVE",
"1754 1487 OFFCURVE",
"1812 1513 CURVE",
"1769 1448 OFFCURVE",
"1714 1391 OFFCURVE",
"1651 1345 CURVE"
);
}
);
width = 2048;
}
);
unicode = F072;
},
{
glyphname = unif073;
lastChange = "2012-06-06 10:03:01 +0000";
layers = (
{
layerId = "5DF6A5AF-1C8C-47E3-A702-CFF98FD4A394";
name = Regular;
paths = (
{
closed = 0;
nodes = (
"1893 310 LINE",
"1808 310 OFFCURVE",
"1738 240 OFFCURVE",
"1738 155 CURVE SMOOTH",
"1738 69 OFFCURVE",
"1808 0 OFFCURVE",
"1893 0 CURVE SMOOTH",
"1979 0 OFFCURVE",
"2048 69 OFFCURVE",
"2048 155 CURVE SMOOTH",
"2048 240 OFFCURVE",
"1979 310 OFFCURVE",
"1893 310 CURVE"
);
},
{
closed = 0;
nodes = (
"511 310 LINE",
"425 310 OFFCURVE",
"356 240 OFFCURVE",
"356 155 CURVE SMOOTH",
"356 69 OFFCURVE",
"425 0 OFFCURVE",
"511 0 CURVE SMOOTH",
"596 0 OFFCURVE",
"665 69 OFFCURVE",
"665 155 CURVE SMOOTH",
"665 240 OFFCURVE",
"596 310 OFFCURVE",
"511 310 CURVE"
);
},
{
closed = 1;
nodes = (
"2048 1281 LINE",
"2048 1792 LINE",
"458 1792 LINE",
"370 2048 LINE",
"115 2048 LINE SMOOTH",
"51 2048 OFFCURVE",
"0 1983 OFFCURVE",
"0 1920 CURVE SMOOTH",
"0 1857 OFFCURVE",
"51 1792 OFFCURVE",
"115 1792 CURVE SMOOTH",
"210 1792 LINE",
"518 896 LINE",
"354 384 LINE",
"1934 384 LINE SMOOTH",
"1997 384 OFFCURVE",
"2048 449 OFFCURVE",
"2048 512 CURVE SMOOTH",
"2048 575 OFFCURVE",
"1997 640 OFFCURVE",
"1934 640 CURVE SMOOTH",
"668 640 LINE",
"756 896 LINE",
"1664 896 LINE"
);
}
);
width = 2048;
}
);
unicode = F073;
},
{
glyphname = unif074;
lastChange = "2012-06-07 15:41:41 +0000";
layers = (
{
layerId = "5DF6A5AF-1C8C-47E3-A702-CFF98FD4A394";
name = Regular;
paths = (
{
closed = 1;
nodes = (
"1973 1626 OFFCURVE",
"1892 1603 OFFCURVE",
"1807 1593 CURVE",
"1894 1645 OFFCURVE",
"1960 1727 OFFCURVE",
"1992 1825 CURVE",
"1910 1777 OFFCURVE",
"1820 1742 OFFCURVE",
"1725 1724 CURVE",
"1648 1805 OFFCURVE",
"1539 1856 OFFCURVE",
"1418 1856 CURVE SMOOTH",
"1186 1856 OFFCURVE",
"998 1668 OFFCURVE",
"998 1436 CURVE SMOOTH",
"998 1403 OFFCURVE",
"1002 1371 OFFCURVE",
"1009 1340 CURVE",
"660 1358 OFFCURVE",
"350 1525 OFFCURVE",
"143 1779 CURVE",
"107 1717 OFFCURVE",
"86 1645 OFFCURVE",
"86 1568 CURVE SMOOTH",
"86 1422 OFFCURVE",
"160 1294 OFFCURVE",
"273 1218 CURVE",
"204 1220 OFFCURVE",
"139 1239 OFFCURVE",
"82 1271 CURVE",
"82 1269 OFFCURVE",
"82 1267 OFFCURVE",
"82 1266 CURVE SMOOTH",
"82 1062 OFFCURVE",
"227 892 OFFCURVE",
"419 853 CURVE",
"384 844 OFFCURVE",
"347 839 OFFCURVE",
"309 839 CURVE SMOOTH",
"282 839 OFFCURVE",
"255 841 OFFCURVE",
"230 846 CURVE",
"283 679 OFFCURVE",
"438 558 OFFCURVE",
"622 554 CURVE",
"478 442 OFFCURVE",
"297 375 OFFCURVE",
"100 375 CURVE SMOOTH",
"66 375 OFFCURVE",
"33 377 OFFCURVE",
"0 380 CURVE",
"186 261 OFFCURVE",
"407 192 OFFCURVE",
"644 192 CURVE SMOOTH",
"1417 192 OFFCURVE",
"1840 832 OFFCURVE",
"1840 1387 CURVE SMOOTH",
"1840 1406 OFFCURVE",
"1839 1424 OFFCURVE",
"1838 1442 CURVE",
"1921 1501 OFFCURVE",
"1992 1575 OFFCURVE",
"2048 1659 CURVE"
);
}
);
width = 2048;
}
);
unicode = F074;
},
{
glyphname = unif075;
lastChange = "2012-06-06 10:04:25 +0000";
layers = (
{
layerId = "5DF6A5AF-1C8C-47E3-A702-CFF98FD4A394";
name = Regular;
paths = (
{
closed = 1;
nodes = (
"1497 1005 OFFCURVE",
"1536 1138 OFFCURVE",
"1536 1280 CURVE SMOOTH",
"1536 1704 OFFCURVE",
"1192 2048 OFFCURVE",
"768 2048 CURVE SMOOTH",
"344 2048 OFFCURVE",
"0 1704 OFFCURVE",
"0 1280 CURVE SMOOTH",
"0 856 OFFCURVE",
"344 512 OFFCURVE",
"768 512 CURVE SMOOTH",
"910 512 OFFCURVE",
"1043 551 OFFCURVE",
"1158 619 CURVE",
"1776 0 LINE",
"2048 271 LINE",
"1429 890 LINE"
);
},
{
closed = 1;
nodes = (
"485 768 OFFCURVE",
"256 997 OFFCURVE",
"256 1280 CURVE SMOOTH",
"256 1563 OFFCURVE",
"485 1792 OFFCURVE",
"768 1792 CURVE SMOOTH",
"1051 1792 OFFCURVE",
"1280 1563 OFFCURVE",
"1280 1280 CURVE SMOOTH",
"1280 997 OFFCURVE",
"1051 768 OFFCURVE",
"768 768 CURVE SMOOTH"
);
},
{
closed = 1;
nodes = (
"683 1536 LINE",
"683 1365 LINE",
"512 1365 LINE",
"512 1195 LINE",
"683 1195 LINE",
"683 1024 LINE",
"853 1024 LINE",
"853 1195 LINE",
"1024 1195 LINE",
"1024 1365 LINE",
"853 1365 LINE",
"853 1536 LINE"
);
}
);
width = 2048;
}
);
unicode = F075;
},
{
glyphname = unif076;
lastChange = "2012-06-06 10:04:08 +0000";
layers = (
{
layerId = "5DF6A5AF-1C8C-47E3-A702-CFF98FD4A394";
name = Regular;
paths = (
{
closed = 1;
nodes = (
"512 1195 LINE",
"512 1365 LINE",
"1024 1365 LINE",
"1024 1195 LINE"
);
},
{
closed = 1;
nodes = (
"1429 890 LINE",
"1497 1005 OFFCURVE",
"1536 1138 OFFCURVE",
"1536 1280 CURVE SMOOTH",
"1536 1704 OFFCURVE",
"1192 2048 OFFCURVE",
"768 2048 CURVE SMOOTH",
"344 2048 OFFCURVE",
"0 1704 OFFCURVE",
"0 1280 CURVE SMOOTH",
"0 856 OFFCURVE",
"344 512 OFFCURVE",
"768 512 CURVE SMOOTH",
"910 512 OFFCURVE",
"1043 551 OFFCURVE",
"1158 619 CURVE",
"1776 0 LINE",
"2048 271 LINE"
);
},
{
closed = 1;
nodes = (
"256 1563 OFFCURVE",
"485 1792 OFFCURVE",
"768 1792 CURVE SMOOTH",
"1051 1792 OFFCURVE",
"1280 1563 OFFCURVE",
"1280 1280 CURVE SMOOTH",
"1280 997 OFFCURVE",
"1051 768 OFFCURVE",
"768 768 CURVE SMOOTH",
"485 768 OFFCURVE",
"256 997 OFFCURVE",
"256 1280 CURVE SMOOTH"
);
}
);
width = 2048;
}
);
unicode = F076;
},
{
glyphname = unif077;
lastChange = "2012-06-06 10:05:01 +0000";
layers = (
{
layerId = "5DF6A5AF-1C8C-47E3-A702-CFF98FD4A394";
name = Regular;
paths = (
{
closed = 1;
nodes = (
"0 0 LINE",
"2048 0 LINE",
"2048 2048 LINE",
"0 2048 LINE"
);
},
{
closed = 1;
nodes = (
"256 384 LINE",
"256 640 LINE",
"512 640 LINE",
"512 384 LINE"
);
},
{
closed = 1;
nodes = (
"256 896 LINE",
"256 1152 LINE",
"512 1152 LINE",
"512 896 LINE"
);
},
{
closed = 1;
nodes = (
"256 1408 LINE",
"256 1664 LINE",
"512 1664 LINE",
"512 1408 LINE"
);
},
{
closed = 1;
nodes = (
"768 384 LINE",
"768 640 LINE",
"1792 640 LINE",
"1792 384 LINE"
);
},
{
closed = 1;
nodes = (
"768 896 LINE",
"768 1152 LINE",
"1792 1152 LINE",
"1792 896 LINE"
);
},
{
closed = 1;
nodes = (
"768 1408 LINE",
"768 1664 LINE",
"1792 1664 LINE",
"1792 1408 LINE"
);
}
);
width = 2048;
}
);
unicode = F077;
},
{
glyphname = unif078;
lastChange = "2012-06-06 10:05:16 +0000";
layers = (
{
layerId = "5DF6A5AF-1C8C-47E3-A702-CFF98FD4A394";
name = Regular;
paths = (
{
closed = 1;
nodes = (
"0 0 LINE",
"2048 0 LINE",
"2048 2048 LINE",
"0 2048 LINE"
);
},
{
closed = 1;
nodes = (
"384 384 LINE",
"384 896 LINE",
"896 896 LINE",
"896 384 LINE"
);
},
{
closed = 1;
nodes = (
"384 1152 LINE",
"384 1664 LINE",
"896 1664 LINE",
"896 1152 LINE"
);
},
{
closed = 1;
nodes = (
"1152 384 LINE",
"1152 896 LINE",
"1664 896 LINE",
"1664 384 LINE"
);
},
{
closed = 1;
nodes = (
"1152 1152 LINE",
"1152 1664 LINE",
"1664 1664 LINE",
"1664 1152 LINE"
);
}
);
width = 2048;
}
);
unicode = F078;
},
{
glyphname = unif079;
lastChange = "2012-06-06 10:05:37 +0000";
layers = (
{
layerId = "5DF6A5AF-1C8C-47E3-A702-CFF98FD4A394";
name = Regular;
paths = (
{
closed = 1;
nodes = (
"1152 1920 LINE",
"1280 1920 LINE",
"1280 2048 LINE",
"768 2048 LINE",
"768 1920 LINE",
"896 1920 LINE",
"896 1782 LINE",
"462 1719 OFFCURVE",
"128 1347 OFFCURVE",
"128 896 CURVE SMOOTH",
"128 401 OFFCURVE",
"529 0 OFFCURVE",
"1024 0 CURVE SMOOTH",
"1519 0 OFFCURVE",
"1920 401 OFFCURVE",
"1920 896 CURVE SMOOTH",
"1920 1347 OFFCURVE",
"1586 1719 OFFCURVE",
"1152 1782 CURVE"
);
},
{
closed = 1;
nodes = (
"694 299 OFFCURVE",
"427 566 OFFCURVE",
"427 896 CURVE SMOOTH",
"427 1226 OFFCURVE",
"694 1493 OFFCURVE",
"1024 1493 CURVE SMOOTH",
"1354 1493 OFFCURVE",
"1621 1226 OFFCURVE",
"1621 896 CURVE SMOOTH",
"1621 566 OFFCURVE",
"1354 299 OFFCURVE",
"1024 299 CURVE SMOOTH"
);
},
{
closed = 1;
nodes = (
"912 768 LINE",
"912 1408 LINE",
"1136 1408 LINE",
"1136 768 LINE"
);
}
);
width = 2048;
}
);
unicode = F079;
},
{
glyphname = unif07a;
lastChange = "2012-06-06 10:05:59 +0000";
layers = (
{
layerId = "5DF6A5AF-1C8C-47E3-A702-CFF98FD4A394";
name = Regular;
paths = (
{
closed = 1;
nodes = (
"458 2048 OFFCURVE",
"0 1589 OFFCURVE",
"0 1024 CURVE SMOOTH",
"0 458 OFFCURVE",
"458 0 OFFCURVE",
"1024 0 CURVE SMOOTH",
"1590 0 OFFCURVE",
"2048 458 OFFCURVE",
"2048 1024 CURVE SMOOTH",
"2048 1589 OFFCURVE",
"1590 2048 OFFCURVE",
"1024 2048 CURVE SMOOTH"
);
},
{
closed = 1;
nodes = (
"600 256 OFFCURVE",
"256 600 OFFCURVE",
"256 1024 CURVE SMOOTH",
"256 1448 OFFCURVE",
"600 1792 OFFCURVE",
"1024 1792 CURVE SMOOTH",
"1448 1792 OFFCURVE",
"1792 1448 OFFCURVE",
"1792 1024 CURVE SMOOTH",
"1792 600 OFFCURVE",
"1448 256 OFFCURVE",
"1024 256 CURVE SMOOTH"
);
},
{
closed = 1;
nodes = (
"1152 1664 LINE",
"896 1664 LINE",
"896 896 LINE",
"1664 896 LINE",
"1664 1152 LINE",
"1152 1152 LINE"
);
}
);
width = 2048;
}
);
unicode = F07A;
},
{
glyphname = unif07b;
lastChange = "2012-06-06 10:06:18 +0000";
layers = (
{
layerId = "5DF6A5AF-1C8C-47E3-A702-CFF98FD4A394";
name = Regular;
paths = (
{
closed = 1;
nodes = (
"1536 823 OFFCURVE",
"1331 1024 OFFCURVE",
"1024 1024 CURVE SMOOTH",
"717 1024 OFFCURVE",
"512 823 OFFCURVE",
"512 576 CURVE SMOOTH",
"512 256 LINE",
"256 256 LINE",
"256 0 LINE",
"1792 0 LINE",
"1792 256 LINE",
"1536 256 LINE",
"1536 576 LINE SMOOTH"
);
},
{
closed = 1;
nodes = (
"640 256 LINE",
"640 512 LINE",
"1408 512 LINE",
"1408 256 LINE"
);
},
{
closed = 1;
nodes = (
"256 1792 LINE",
"512 1792 LINE",
"512 1472 LINE SMOOTH",
"512 1225 OFFCURVE",
"717 1024 OFFCURVE",
"1024 1024 CURVE SMOOTH",
"1331 1024 OFFCURVE",
"1536 1225 OFFCURVE",
"1536 1472 CURVE SMOOTH",
"1536 1792 LINE",
"1792 1792 LINE",
"1792 2048 LINE",
"256 2048 LINE"
);
},
{
closed = 1;
nodes = (
"812 1152 OFFCURVE",
"640 1267 OFFCURVE",
"640 1408 CURVE",
"1408 1408 LINE",
"1408 1267 OFFCURVE",
"1236 1152 OFFCURVE",
"1024 1152 CURVE SMOOTH"
);
}
);
width = 2048;
}
);
unicode = F07B;
},
{
glyphname = unif07c;
lastChange = "2012-06-06 10:06:47 +0000";
layers = (
{
layerId = "5DF6A5AF-1C8C-47E3-A702-CFF98FD4A394";
name = Regular;
paths = (
{
closed = 1;
nodes = (
"1792 2048 LINE",
"256 2048 LINE",
"0 1408 LINE",
"0 1313 OFFCURVE",
"52 1232 OFFCURVE",
"128 1187 CURVE",
"128 0 LINE",
"1920 0 LINE",
"1920 1187 LINE",
"1996 1232 OFFCURVE",
"2048 1313 OFFCURVE",
"2048 1408 CURVE"
);
},
{
closed = 1;
nodes = (
"384 1187 LINE",
"460 1232 OFFCURVE",
"512 1313 OFFCURVE",
"512 1408 CURVE",
"512 1267 OFFCURVE",
"627 1152 OFFCURVE",
"768 1152 CURVE SMOOTH",
"909 1152 OFFCURVE",
"1024 1267 OFFCURVE",
"1024 1408 CURVE",
"1024 1267 OFFCURVE",
"1139 1152 OFFCURVE",
"1280 1152 CURVE SMOOTH",
"1421 1152 OFFCURVE",
"1536 1267 OFFCURVE",
"1536 1408 CURVE",
"1536 1313 OFFCURVE",
"1588 1232 OFFCURVE",
"1664 1187 CURVE",
"1664 512 LINE",
"384 512 LINE"
);
}
);
width = 2048;
}
);
unicode = F07C;
},
{
glyphname = unif07d;
lastChange = "2012-06-06 10:10:29 +0000";
layers = (
{
layerId = "5DF6A5AF-1C8C-47E3-A702-CFF98FD4A394";
name = Regular;
paths = (
{
closed = 1;
nodes = (
"1565 483 LINE",
"600 483 LINE",
"600 0 LINE",
"2048 0 LINE",
"2048 1448 LINE",
"1565 1448 LINE"
);
}
);
width = 2048;
}
);
unicode = F07D;
},
{
glyphname = unif07e;
lastChange = "2012-06-06 10:11:03 +0000";
layers = (
{
layerId = "5DF6A5AF-1C8C-47E3-A702-CFF98FD4A394";
name = Regular;
paths = (
{
closed = 1;
nodes = (
"483 483 LINE",
"483 1448 LINE",
"0 1448 LINE",
"0 0 LINE",
"1448 0 LINE",
"1448 483 LINE"
);
}
);
width = 2048;
}
);
unicode = F07E;
},
{
glyphname = unif080;
lastChange = "2012-06-07 10:42:39 +0000";
layers = (
{
layerId = "5DF6A5AF-1C8C-47E3-A702-CFF98FD4A394";
name = Regular;
paths = (
{
closed = 1;
nodes = (
"2048 2048 LINE"
);
},
{
closed = 1;
nodes = (
"1565 1565 LINE",
"1565 600 LINE",
"2048 600 LINE",
"2048 2048 LINE",
"600 2048 LINE",
"600 1565 LINE"
);
}
);
width = 2048;
}
);
unicode = F080;
},
{
glyphname = unif081;
lastChange = "2012-06-07 10:43:16 +0000";
layers = (
{
layerId = "5DF6A5AF-1C8C-47E3-A702-CFF98FD4A394";
name = Regular;
paths = (
{
closed = 1;
nodes = (
"483 1565 LINE",
"1448 1565 LINE",
"1448 2048 LINE",
"0 2048 LINE",
"0 600 LINE",
"483 600 LINE"
);
}
);
width = 2048;
}
);
unicode = F081;
},
{
glyphname = unif082;
lastChange = "2012-06-07 10:45:04 +0000";
layers = (
{
layerId = "5DF6A5AF-1C8C-47E3-A702-CFF98FD4A394";
name = Regular;
paths = (
{
closed = 1;
nodes = (
"2048 0 LINE",
"2048 1448 LINE",
"600 0 LINE"
);
}
);
width = 2048;
}
);
unicode = F082;
},
{
glyphname = unif083;
lastChange = "2012-06-07 10:49:00 +0000";
layers = (
{
layerId = "5DF6A5AF-1C8C-47E3-A702-CFF98FD4A394";
name = Regular;
paths = (
{
closed = 1;
nodes = (
"0 0 LINE",
"1448 0 LINE",
"0 1448 LINE"
);
}
);
width = 2048;
}
);
unicode = F083;
},
{
glyphname = unif084;
lastChange = "2012-06-07 10:49:36 +0000";
layers = (
{
layerId = "5DF6A5AF-1C8C-47E3-A702-CFF98FD4A394";
name = Regular;
paths = (
{
closed = 1;
nodes = (
"2048 2048 LINE",
"600 2048 LINE",
"2048 600 LINE"
);
}
);
width = 2048;
}
);
unicode = F084;
},
{
glyphname = unif085;
lastChange = "2012-06-07 10:50:01 +0000";
layers = (
{
layerId = "5DF6A5AF-1C8C-47E3-A702-CFF98FD4A394";
name = Regular;
paths = (
{
closed = 1;
nodes = (
"0 2048 LINE",
"0 600 LINE",
"1448 2048 LINE"
);
}
);
width = 2048;
}
);
unicode = F085;
},
{
glyphname = unif086;
lastChange = "2012-06-07 10:50:28 +0000";
layers = (
{
layerId = "5DF6A5AF-1C8C-47E3-A702-CFF98FD4A394";
name = Regular;
paths = (
{
closed = 1;
nodes = (
"1536 512 LINE",
"2048 512 LINE",
"2048 768 LINE",
"1280 768 LINE",
"1280 0 LINE",
"1536 0 LINE"
);
},
{
closed = 1;
nodes = (
"512 512 LINE",
"512 0 LINE",
"768 0 LINE",
"768 768 LINE",
"0 768 LINE",
"0 512 LINE"
);
},
{
closed = 1;
nodes = (
"512 1536 LINE",
"0 1536 LINE",
"0 1280 LINE",
"768 1280 LINE",
"768 2048 LINE",
"512 2048 LINE"
);
},
{
closed = 1;
nodes = (
"1536 1536 LINE",
"1536 2048 LINE",
"1280 2048 LINE",
"1280 1280 LINE",
"2048 1280 LINE",
"2048 1536 LINE"
);
}
);
width = 2048;
}
);
unicode = F086;
},
{
glyphname = unif087;
lastChange = "2012-06-07 10:50:47 +0000";
layers = (
{
layerId = "5DF6A5AF-1C8C-47E3-A702-CFF98FD4A394";
name = Regular;
paths = (
{
closed = 1;
nodes = (
"256 1792 LINE",
"768 1792 LINE",
"768 2048 LINE",
"0 2048 LINE",
"0 1280 LINE",
"256 1280 LINE"
);
},
{
closed = 1;
nodes = (
"1792 1792 LINE",
"1792 1280 LINE",
"2048 1280 LINE",
"2048 2048 LINE",
"1280 2048 LINE",
"1280 1792 LINE"
);
},
{
closed = 1;
nodes = (
"1792 256 LINE",
"1280 256 LINE",
"1280 0 LINE",
"2048 0 LINE",
"2048 768 LINE",
"1792 768 LINE"
);
},
{
closed = 1;
nodes = (
"256 256 LINE",
"256 768 LINE",
"0 768 LINE",
"0 0 LINE",
"768 0 LINE",
"768 256 LINE"
);
}
);
width = 2048;
}
);
unicode = F087;
},
{
glyphname = unif088;
lastChange = "2012-06-07 11:27:46 +0000";
layers = (
{
layerId = "5DF6A5AF-1C8C-47E3-A702-CFF98FD4A394";
name = Regular;
paths = (
{
closed = 1;
nodes = (
"768 768 LINE",
"0 768 LINE",
"768 0 LINE"
);
},
{
closed = 1;
nodes = (
"1280 768 LINE",
"1280 0 LINE",
"2048 768 LINE"
);
},
{
closed = 1;
nodes = (
"1280 1280 LINE",
"2048 1280 LINE",
"1280 2048 LINE"
);
},
{
closed = 1;
nodes = (
"768 1280 LINE",
"768 2048 LINE",
"0 1280 LINE"
);
}
);
width = 2048;
}
);
unicode = F088;
},
{
glyphname = unif089;
lastChange = "2012-06-07 11:27:55 +0000";
layers = (
{
layerId = "5DF6A5AF-1C8C-47E3-A702-CFF98FD4A394";
name = Regular;
paths = (
{
closed = 1;
nodes = (
"2048 2048 LINE",
"1280 2048 LINE",
"2048 1280 LINE"
);
},
{
closed = 1;
nodes = (
"0 2048 LINE",
"0 1280 LINE",
"768 2048 LINE"
);
},
{
closed = 1;
nodes = (
"0 0 LINE",
"768 0 LINE",
"0 768 LINE"
);
},
{
closed = 1;
nodes = (
"2048 0 LINE",
"2048 768 LINE",
"1280 0 LINE"
);
}
);
width = 2048;
}
);
unicode = F089;
},
{
glyphname = unif08a;
lastChange = "2012-06-07 11:28:44 +0000";
layers = (
{
layerId = "5DF6A5AF-1C8C-47E3-A702-CFF98FD4A394";
name = Regular;
paths = (
{
closed = 1;
nodes = (
"0 0 LINE",
"2048 0 LINE",
"2048 2048 LINE",
"0 2048 LINE"
);
},
{
closed = 1;
nodes = (
"128 128 LINE",
"128 1920 LINE",
"1920 1920 LINE",
"1920 128 LINE"
);
},
{
closed = 1;
nodes = (
"384 896 LINE",
"1664 896 LINE",
"1664 1152 LINE",
"384 1152 LINE"
);
}
);
width = 2048;
}
);
unicode = F08A;
},
{
glyphname = unif08b;
lastChange = "2012-06-07 11:28:51 +0000";
layers = (
{
layerId = "5DF6A5AF-1C8C-47E3-A702-CFF98FD4A394";
name = Regular;
paths = (
{
closed = 1;
nodes = (
"0 0 LINE",
"2048 0 LINE",
"2048 2048 LINE",
"0 2048 LINE"
);
},
{
closed = 1;
nodes = (
"128 128 LINE",
"128 1920 LINE",
"1920 1920 LINE",
"1920 128 LINE"
);
},
{
closed = 1;
nodes = (
"896 1152 LINE",
"384 1152 LINE",
"384 896 LINE",
"896 896 LINE",
"896 384 LINE",
"1152 384 LINE",
"1152 896 LINE",
"1664 896 LINE",
"1664 1152 LINE",
"1152 1152 LINE",
"1152 1664 LINE",
"896 1664 LINE"
);
}
);
width = 2048;
}
);
unicode = F08B;
},
{
glyphname = unif08c;
lastChange = "2012-06-07 11:06:29 +0000";
layers = (
{
layerId = "5DF6A5AF-1C8C-47E3-A702-CFF98FD4A394";
name = Regular;
paths = (
{
closed = 1;
nodes = (
"0 1536 LINE",
"0 2048 LINE",
"512 2048 LINE",
"512 1536 LINE"
);
},
{
closed = 1;
nodes = (
"768 1536 LINE",
"768 2048 LINE",
"2048 2048 LINE",
"2048 1536 LINE"
);
},
{
closed = 1;
nodes = (
"0 768 LINE",
"0 1280 LINE",
"512 1280 LINE",
"512 768 LINE"
);
},
{
closed = 1;
nodes = (
"768 768 LINE",
"768 1280 LINE",
"2048 1280 LINE",
"2048 768 LINE"
);
},
{
closed = 1;
nodes = (
"0 0 LINE",
"0 512 LINE",
"512 512 LINE",
"512 0 LINE"
);
},
{
closed = 1;
nodes = (
"768 0 LINE",
"768 512 LINE",
"2048 512 LINE",
"2048 0 LINE"
);
}
);
width = 2048;
}
);
unicode = F08C;
},
{
glyphname = unif08d;
lastChange = "2012-06-07 11:06:47 +0000";
layers = (
{
layerId = "5DF6A5AF-1C8C-47E3-A702-CFF98FD4A394";
name = Regular;
paths = (
{
closed = 1;
nodes = (
"0 1152 LINE",
"0 2048 LINE",
"896 2048 LINE",
"896 1152 LINE"
);
},
{
closed = 1;
nodes = (
"1152 1152 LINE",
"1152 2048 LINE",
"2048 2048 LINE",
"2048 1152 LINE"
);
},
{
closed = 1;
nodes = (
"0 0 LINE",
"0 896 LINE",
"896 896 LINE",
"896 0 LINE"
);
},
{
closed = 1;
nodes = (
"1152 0 LINE",
"1152 896 LINE",
"2048 896 LINE",
"2048 0 LINE"
);
}
);
width = 2048;
}
);
unicode = F08D;
},
{
glyphname = unif08e;
lastChange = "2012-06-07 11:07:28 +0000";
layers = (
{
layerId = "5DF6A5AF-1C8C-47E3-A702-CFF98FD4A394";
name = Regular;
paths = (
{
closed = 1;
nodes = (
"1408 2048 LINE",
"640 2048 LINE",
"640 1024 LINE",
"256 1024 LINE",
"1024 0 LINE",
"1792 1024 LINE",
"1408 1024 LINE"
);
}
);
width = 2048;
}
);
unicode = F08E;
},
{
glyphname = unif090;
lastChange = "2012-06-07 11:08:05 +0000";
layers = (
{
layerId = "5DF6A5AF-1C8C-47E3-A702-CFF98FD4A394";
name = Regular;
paths = (
{
closed = 1;
nodes = (
"0 1408 LINE",
"0 640 LINE",
"1024 640 LINE",
"1024 256 LINE",
"2048 1024 LINE",
"1024 1792 LINE",
"1024 1408 LINE"
);
}
);
width = 2048;
}
);
unicode = F090;
},
{
glyphname = unif091;
lastChange = "2012-06-07 11:08:24 +0000";
layers = (
{
layerId = "5DF6A5AF-1C8C-47E3-A702-CFF98FD4A394";
name = Regular;
paths = (
{
closed = 1;
nodes = (
"2048 640 LINE",
"2048 1408 LINE",
"1024 1408 LINE",
"1024 1792 LINE",
"0 1024 LINE",
"1024 256 LINE",
"1024 640 LINE"
);
}
);
width = 2048;
}
);
unicode = F091;
},
{
glyphname = unif092;
lastChange = "2012-06-07 11:08:43 +0000";
layers = (
{
layerId = "5DF6A5AF-1C8C-47E3-A702-CFF98FD4A394";
name = Regular;
paths = (
{
closed = 1;
nodes = (
"640 0 LINE",
"1408 0 LINE",
"1408 1024 LINE",
"1792 1024 LINE",
"1024 2048 LINE",
"256 1024 LINE",
"640 1024 LINE"
);
}
);
width = 2048;
}
);
unicode = F092;
},
{
glyphname = unif093;
lastChange = "2012-06-07 11:09:04 +0000";
layers = (
{
layerId = "5DF6A5AF-1C8C-47E3-A702-CFF98FD4A394";
name = Regular;
paths = (
{
closed = 1;
nodes = (
"1664 0 LINE",
"1664 2048 LINE",
"0 2048 LINE",
"0 0 LINE"
);
},
{
closed = 1;
nodes = (
"1792 1408 LINE",
"2048 1408 LINE",
"2048 1920 LINE",
"1792 1920 LINE"
);
},
{
closed = 1;
nodes = (
"2048 768 LINE",
"2048 1280 LINE",
"1792 1280 LINE",
"1792 768 LINE"
);
},
{
closed = 1;
nodes = (
"2048 128 LINE",
"2048 640 LINE",
"1792 640 LINE",
"1792 128 LINE"
);
}
);
width = 2048;
}
);
unicode = F093;
},
{
glyphname = unif094;
lastChange = "2012-06-07 11:29:44 +0000";
layers = (
{
layerId = "5DF6A5AF-1C8C-47E3-A702-CFF98FD4A394";
name = Regular;
paths = (
{
closed = 1;
nodes = (
"1084 1334 LINE",
"541 791 LINE SMOOTH",
"440 691 OFFCURVE",
"440 529 OFFCURVE",
"541 429 CURVE SMOOTH",
"640 329 OFFCURVE",
"802 328 OFFCURVE",
"903 429 CURVE SMOOTH",
"1446 972 LINE",
"1446 972 LINE",
"1808 1334 LINE SMOOTH",
"1958 1484 OFFCURVE",
"1958 1727 OFFCURVE",
"1808 1877 CURVE SMOOTH",
"1658 2027 OFFCURVE",
"1415 2027 OFFCURVE",
"1265 1877 CURVE SMOOTH",
"652 1264 LINE",
"269 881 LINE SMOOTH",
"69 681 OFFCURVE",
"69 357 OFFCURVE",
"269 157 CURVE SMOOTH",
"469 -43 OFFCURVE",
"793 -43 OFFCURVE",
"993 157 CURVE SMOOTH",
"1627 791 LINE",
"1536 881 LINE",
"903 247 LINE SMOOTH",
"753 97 OFFCURVE",
"509 98 OFFCURVE",
"359 247 CURVE SMOOTH",
"210 397 OFFCURVE",
"209 641 OFFCURVE",
"359 791 CURVE SMOOTH",
"631 1062 LINE",
"631 1062 LINE",
"1355 1786 LINE SMOOTH",
"1455 1886 OFFCURVE",
"1617 1886 OFFCURVE",
"1717 1786 CURVE SMOOTH",
"1817 1686 OFFCURVE",
"1817 1524 OFFCURVE",
"1717 1424 CURVE SMOOTH",
"1446 1152 LINE",
"1446 1153 LINE",
"812 519 LINE SMOOTH",
"762 469 OFFCURVE",
"681 469 OFFCURVE",
"631 519 CURVE SMOOTH",
"581 569 OFFCURVE",
"581 650 OFFCURVE",
"631 700 CURVE SMOOTH",
"1174 1243 LINE"
);
}
);
width = 2048;
}
);
unicode = F094;
},
